<?xml version="1.0" standalone="no"?>
<!DOCTYPE svg PUBLIC "-//W3C//DTD SVG 20010904//EN"
 "http://www.w3.org/TR/2001/REC-SVG-20010904/DTD/svg10.dtd">
<svg version="1.0" xmlns="http://www.w3.org/2000/svg"
 width="526.000000pt" height="474.000000pt" viewBox="0 0 526.000000 474.000000"
 preserveAspectRatio="xMidYMid meet">

<g transform="translate(0.000000,474.000000) scale(0.100000,-0.100000)"
fill="#000000" stroke="none">
<path d="M3780 3765 c-14 -8 -20 -14 -14 -15 5 0 19 7 30 15 24 18 16 19 -16
0z"/>
<path d="M3700 3732 c-92 -46 -139 -76 -134 -83 3 -5 -2 -6 -10 -3 -9 3 -16 1
-16 -5 0 -6 -5 -11 -12 -11 -18 0 -79 -50 -73 -61 3 -5 0 -6 -7 -4 -8 3 -29
-10 -47 -29 l-33 -34 4 -132 4 -132 -72 78 -72 79 -68 -105 c-38 -58 -110
-188 -161 -289 -51 -101 -94 -178 -97 -170 -3 8 -16 56 -31 108 -43 154 -139
386 -156 375 -5 -3 -6 3 -2 12 5 13 3 16 -10 11 -9 -3 -17 -2 -17 2 0 5 5 11
12 13 8 3 8 7 2 11 -6 3 -18 -10 -28 -29 -9 -20 -12 -33 -6 -29 5 3 10 -2 10
-12 0 -15 2 -16 10 -3 8 12 10 11 10 -6 0 -11 6 -26 13 -33 10 -11 9 -13 -3
-9 -14 5 -14 0 -6 -37 6 -24 13 -42 16 -40 3 2 4 -28 2 -66 -3 -49 0 -74 9
-86 11 -13 11 -17 1 -20 -6 -3 -10 -8 -8 -12 10 -16 16 -251 6 -251 -5 0 -10
-4 -10 -10 0 -5 7 -10 15 -10 8 0 15 -4 15 -10 0 -5 -5 -10 -11 -10 -5 0 -7
-5 -4 -10 4 -6 7 -51 8 -101 0 -50 4 -92 9 -95 4 -3 3 -14 -2 -25 -8 -15 -7
-21 4 -25 12 -5 13 -11 6 -25 -9 -15 -7 -18 7 -13 17 5 17 5 1 -9 -10 -8 -18
-20 -18 -27 0 -10 3 -10 15 0 20 17 22 12 14 -30 -4 -22 -7 -27 -8 -12 0 12
-5 22 -11 22 -5 0 -7 -7 -4 -15 4 -9 0 -15 -10 -15 -9 0 -16 4 -16 10 0 5 -6
7 -12 5 -27 -10 -93 41 -134 103 -57 86 -98 127 -172 168 -34 19 -60 39 -58
43 3 4 -2 62 -10 127 -15 112 -24 153 -24 106 0 -11 -5 -24 -10 -27 -6 -4 -7
-11 -4 -17 4 -7 9 -6 14 2 4 7 7 -12 7 -41 0 -30 -2 -46 -4 -36 -3 12 -14 17
-40 17 -30 0 -35 3 -30 20 3 11 1 18 -4 14 -5 -3 -9 4 -9 15 0 16 -6 21 -25
21 -14 0 -25 -4 -25 -10 0 -5 4 -10 10 -10 5 0 13 -12 16 -27 9 -33 23 -49 50
-56 12 -3 6 -5 -14 -6 -34 -1 -71 28 -72 57 0 6 -4 12 -9 12 -5 0 -14 12 -19
28 l-10 27 -1 -27 c-1 -29 -16 -45 -26 -28 -3 5 -1 10 4 10 13 0 15 56 3 64
-5 3 -6 -8 -4 -25 5 -34 -5 -38 -18 -6 -7 18 -9 13 -9 -26 -1 -27 2 -46 7 -44
4 3 7 -32 7 -77 l0 -81 -28 -3 c-17 -2 -29 2 -33 12 -3 9 -11 13 -18 9 -7 -4
-6 -1 2 9 10 12 10 26 0 67 -6 28 -14 48 -17 45 -9 -9 -8 -28 2 -35 5 -4 4
-16 -2 -28 -10 -18 -9 -21 5 -21 24 0 8 -13 -21 -17 -19 -3 -22 0 -18 17 7 27
-21 27 -49 0 -13 -12 -29 -18 -40 -14 -21 6 -24 -6 -6 -24 8 -8 8 -12 1 -12
-17 0 -36 28 -29 45 3 10 -1 18 -12 22 -9 3 -24 15 -33 26 -9 11 -28 21 -41
21 -23 1 -25 -1 -17 -29 5 -16 9 -35 9 -41 0 -15 -108 -16 -117 -1 -5 7 -10
69 -13 138 -4 112 -8 129 -30 161 -48 72 -130 108 -251 112 -76 2 -88 11 -110
76 -17 52 -55 122 -81 150 -13 14 -22 24 -21 22 1 -3 -2 -13 -7 -22 -8 -15 -6
-17 13 -12 20 5 20 4 8 -11 -7 -9 -9 -17 -3 -17 5 0 12 -8 15 -19 4 -17 -1
-18 -47 -14 -33 2 -46 1 -37 -5 10 -8 9 -13 -9 -25 -12 -8 -30 -13 -40 -10
-10 3 -27 0 -37 -6 -17 -10 -17 -10 0 -11 10 0 15 -5 12 -11 -4 -5 -17 -9 -29
-7 -12 1 -35 -7 -50 -20 -16 -12 -36 -22 -45 -22 -9 0 -29 -9 -45 -19 -16 -11
-35 -17 -44 -14 -11 5 -13 1 -7 -18 5 -18 4 -21 -4 -9 -6 8 -11 29 -12 45 -2
30 -2 30 -6 3 -2 -15 6 -64 18 -108 23 -86 19 -108 -18 -96 -14 5 -24 25 -37
81 -10 41 -20 75 -23 75 -3 0 -2 -12 1 -26 5 -18 3 -24 -5 -19 -6 4 -9 20 -7
36 3 15 1 26 -3 23 -4 -2 -10 4 -12 13 -3 10 -5 1 -6 -21 0 -21 4 -56 11 -77
13 -46 75 -122 90 -113 6 4 8 3 5 -3 -4 -6 10 -25 29 -43 54 -48 67 -88 49
-141 -19 -53 -19 -104 0 -160 20 -55 36 -74 107 -127 l58 -43 0 -70 c0 -38 6
-84 13 -102 21 -48 88 -103 181 -148 86 -42 106 -64 106 -114 0 -14 -2 -25 -5
-25 -3 0 -46 36 -96 80 -212 187 -501 343 -769 415 -112 30 -111 29 -103 9 5
-13 7 -13 14 -2 6 9 9 10 9 1 0 -7 7 -10 17 -6 11 4 14 3 9 -6 -5 -7 3 -15 23
-22 17 -6 29 -15 26 -19 -3 -4 10 -17 28 -27 17 -11 43 -29 57 -41 58 -50 103
-81 111 -77 4 3 10 1 14 -5 3 -5 0 -10 -7 -11 -7 -1 -2 -4 12 -8 14 -4 24 -13
23 -19 -2 -6 12 -15 30 -20 17 -4 32 -15 32 -23 0 -8 10 -15 23 -17 12 -2 27
-12 32 -22 5 -10 20 -20 32 -22 13 -2 22 -9 20 -16 -1 -6 5 -12 13 -12 8 0 15
-4 15 -10 0 -5 18 -19 40 -30 22 -11 47 -31 56 -45 9 -14 21 -25 26 -25 5 0
24 -11 42 -25 18 -14 38 -25 44 -25 11 0 16 -13 13 -32 0 -4 6 -5 14 -2 8 4
15 2 15 -3 0 -6 18 -18 39 -29 22 -10 37 -22 35 -26 -3 -5 3 -8 13 -8 11 0 25
-6 32 -12 6 -7 17 -13 23 -13 6 0 13 -7 15 -15 4 -13 3 -13 -7 0 -10 13 -11
13 -7 0 2 -9 14 -14 26 -13 13 2 20 -1 16 -7 -3 -6 -1 -10 5 -10 6 0 9 -4 6
-9 -4 -5 0 -12 6 -14 7 -3 3 -6 -10 -6 -13 -1 -20 -5 -17 -11 4 -6 13 -7 23
-1 27 14 155 30 297 36 l130 6 35 -30 c19 -16 33 -32 30 -34 -6 -5 -384 -27
-500 -28 -74 -1 -78 0 -250 81 -96 45 -176 86 -178 91 -2 5 -10 9 -17 9 -12 0
6 -58 50 -164 7 -17 5 -18 -16 -12 -182 51 -285 66 -464 66 -181 0 -230 -6
-214 -27 13 -15 63 -9 88 11 11 8 13 8 7 -1 -4 -8 -1 -13 9 -13 10 0 13 -5 9
-12 -5 -7 0 -9 14 -6 14 4 19 2 16 -7 -4 -9 7 -15 33 -18 79 -11 96 -16 103
-27 4 -6 22 -12 41 -12 19 0 39 -5 46 -10 6 -5 47 -18 90 -29 43 -11 111 -28
151 -38 39 -10 72 -14 72 -10 0 5 9 0 20 -11 11 -11 26 -20 34 -20 9 0 30 -46
58 -122 51 -142 53 -136 -59 -137 -169 -2 -613 -47 -753 -77 -156 -34 -185
-61 -99 -94 85 -34 486 -89 550 -76 17 3 30 1 33 -7 3 -9 7 -8 15 3 8 12 10
11 8 -7 -1 -18 -4 -20 -20 -12 -11 7 -23 7 -30 1 -7 -5 -24 -12 -40 -16 -37
-9 -34 -34 6 -50 56 -24 77 -28 77 -17 0 6 -10 11 -22 11 -22 0 -64 20 -44 20
6 0 1 7 -10 16 -18 14 -17 15 21 10 25 -3 33 -2 21 3 -13 5 -16 10 -8 15 6 4
21 2 31 -4 13 -6 85 -9 201 -7 139 3 184 1 198 -9 11 -9 13 -13 4 -14 -7 0
-10 -4 -7 -10 10 -16 21 -12 35 15 15 28 30 33 30 10 0 -8 7 -15 15 -15 8 0
15 7 15 16 0 8 5 12 10 9 6 -3 10 -15 10 -26 0 -12 4 -17 11 -13 7 4 8 20 4
43 l-7 36 21 -22 c11 -12 18 -28 15 -36 -3 -8 -1 -18 5 -22 6 -3 11 2 11 13 0
30 11 33 30 9 15 -18 20 -19 34 -8 9 7 16 24 16 38 0 15 4 22 11 18 6 -4 8
-13 5 -21 -4 -10 4 -14 30 -14 19 0 46 -7 59 -16 22 -15 27 -15 48 -1 14 9 49
15 95 15 40 1 77 4 82 7 6 3 7 -1 4 -9 -5 -13 -23 -16 -85 -16 -43 0 -79 -4
-79 -9 0 -13 136 -3 175 12 17 7 73 11 127 10 101 -1 115 5 102 45 -5 14 -4
15 5 2 6 -8 11 -10 11 -5 0 12 20 -16 20 -29 0 -4 -7 -6 -15 -2 -8 3 -15 1
-15 -4 0 -6 3 -10 8 -11 42 -4 64 -3 68 3 3 4 16 8 29 8 19 0 22 4 19 22 -3
14 1 10 10 -9 8 -18 20 -33 26 -33 20 0 51 21 45 31 -4 5 -11 7 -16 4 -5 -4
-9 1 -9 9 0 9 5 16 10 16 6 0 10 -4 10 -10 0 -5 5 -10 11 -10 6 0 8 9 4 23 -5
19 -4 20 5 4 6 -9 9 -21 5 -26 -7 -12 22 -41 41 -41 8 0 17 7 20 15 8 20 24
19 40 -2 16 -24 32 -8 16 17 -8 13 -8 21 -1 26 13 8 26 -5 31 -31 4 -25 34
-31 56 -12 26 22 52 29 45 11 -4 -12 14 -14 116 -14 99 0 123 -3 127 -15 7
-16 24 -11 24 7 0 6 -3 8 -7 5 -3 -4 -12 1 -19 11 -14 17 -19 41 -7 29 24 -25
54 196 34 258 l-9 30 -1 -27 c-1 -40 -31 -206 -42 -235 -5 -13 -13 -22 -18
-19 -5 3 -12 -1 -15 -10 -5 -12 -2 -15 11 -10 14 6 15 4 6 -5 -6 -6 -16 -8
-22 -4 -8 4 -5 17 10 41 18 29 22 56 27 147 2 62 2 109 -2 106 -7 -6 -25 -91
-35 -159 -8 -60 -37 -68 -47 -13 -6 37 -64 186 -70 181 -1 -2 6 -44 16 -93 22
-103 24 -129 10 -120 -5 3 -10 12 -10 20 0 18 -61 187 -66 182 -2 -2 6 -52 18
-110 11 -59 18 -110 15 -113 -12 -13 -76 38 -106 84 -17 26 -43 61 -56 77 -23
27 -22 22 10 -47 44 -96 44 -106 1 -43 -19 28 -46 64 -60 80 l-26 30 20 -49
c11 -27 19 -50 17 -52 -2 -2 -39 23 -82 56 -44 33 -83 60 -86 60 -4 0 -9 -14
-13 -32 -8 -39 -13 -34 -41 44 l-23 63 -53 2 c-30 1 -71 2 -92 2 -28 1 -43 8
-60 28 -12 15 -32 37 -45 49 -36 35 -14 50 109 78 15 3 37 14 49 24 21 17 22
21 9 55 -11 32 -11 39 2 49 17 14 32 62 49 156 15 83 48 192 59 192 5 0 12
-12 15 -26 l7 -25 29 25 c32 27 106 46 176 46 26 0 43 4 39 9 -3 6 -32 9 -64
9 -76 -1 -136 28 -195 92 -53 60 -85 126 -93 190 -5 47 -5 48 26 55 20 4 52
28 85 61 73 75 135 89 176 39 15 -18 63 -45 79 -45 6 0 17 16 25 35 18 42 46
46 81 11 43 -43 46 -138 5 -151 -16 -5 -20 -15 -20 -53 0 -87 75 -208 154
-249 43 -22 148 -11 266 28 117 38 186 37 248 -3 59 -39 77 -85 77 -197 l0
-93 40 6 c22 3 56 8 75 12 l35 6 18 -79 c26 -110 39 -230 32 -277 -10 -61 -15
-77 -26 -71 -5 4 -9 -2 -10 -12 -1 -25 -28 34 -30 67 -1 23 -2 23 -9 -5 -4
-16 -5 -61 -3 -100 l4 -70 -20 35 c-11 19 -20 44 -21 54 0 11 -2 17 -5 14 -3
-3 -2 -39 3 -81 4 -43 6 -77 2 -77 -3 0 -12 9 -20 20 -9 12 -17 16 -21 9 -4
-6 -18 14 -32 45 -26 55 -45 78 -27 32 5 -13 8 -54 7 -90 -1 -37 -5 -59 -9
-49 -12 34 -19 48 -33 73 -13 23 -14 21 -9 -35 3 -37 2 -56 -4 -50 -12 13 -42
103 -42 127 0 43 -20 3 -26 -53 -4 -34 -10 -55 -14 -48 -6 8 -14 1 -26 -22
l-18 -34 -7 30 c-6 29 -7 29 -8 -8 -1 -44 -17 -80 -32 -72 -5 4 -9 1 -9 -4 0
-6 -4 -11 -9 -11 -6 0 -7 16 -4 35 4 24 2 35 -7 35 -8 0 -11 -14 -10 -42 4
-68 2 -75 -15 -52 -13 17 -14 17 -15 2 0 -10 5 -18 10 -18 6 0 10 -8 11 -17 0
-14 2 -15 6 -3 8 20 43 65 43 55 0 -5 10 0 22 11 20 18 21 18 15 1 -4 -12 -3
-16 4 -11 6 3 9 14 6 23 -3 13 1 17 17 15 12 -1 27 -3 34 -3 6 -1 12 -8 12
-18 0 -9 3 -13 8 -9 4 4 7 13 7 18 0 22 23 18 29 -4 l7 -23 9 23 c9 21 21 28
32 16 3 -3 69 -6 147 -7 119 -2 141 0 141 13 1 12 4 11 15 -4 14 -18 20 -19
139 -7 101 10 129 9 146 -1 16 -10 22 -10 28 -1 11 18 91 20 102 3 7 -11 11
-11 24 -1 13 11 56 12 210 6 191 -7 390 5 444 26 31 12 28 3 -5 -16 l-28 -16
27 6 c15 3 30 1 33 -5 3 -5 25 -10 48 -10 39 0 319 33 377 45 14 3 41 8 60 11
52 10 111 35 104 45 -3 5 2 6 10 3 19 -7 21 9 4 24 -36 29 -234 69 -436 88
-40 4 -75 11 -78 15 -3 5 0 9 7 9 25 0 128 53 122 63 -3 6 -1 7 5 3 7 -4 31 4
54 18 24 14 39 26 33 27 -87 8 -104 4 -78 -18 17 -14 17 -14 -2 -8 -35 12 -78
12 -105 -1 -35 -17 -187 -27 -195 -14 -5 8 -11 6 -18 -3 -14 -17 -70 -30 -60
-14 3 5 0 7 -8 5 -8 -3 -19 2 -26 11 -9 13 -11 4 -12 -46 0 -34 -5 -72 -12
-84 -11 -21 -12 -20 -35 27 -13 27 -24 55 -24 62 0 6 -4 12 -9 12 -6 0 -6 -13
-1 -33 14 -55 20 -137 10 -137 -6 0 -10 9 -10 21 0 11 -4 18 -9 15 -5 -4 -14
6 -20 21 l-11 28 5 -30 c4 -25 4 -27 -6 -12 -6 10 -9 37 -7 58 3 32 1 37 -8
25 -21 -29 -26 -16 -20 52 4 37 3 87 -2 112 -8 44 -8 42 -31 -80 -13 -69 -26
-147 -30 -175 -4 -32 -8 -43 -12 -30 -6 23 -5 102 3 125 3 8 3 12 1 8 -13 -23
-23 -1 -24 50 0 31 -4 75 -8 97 l-7 40 -12 -53 c-7 -29 -12 -66 -12 -82 0 -40
-16 -38 -24 2 -3 18 -20 60 -36 93 -17 33 -28 49 -25 35 11 -43 15 -218 6
-190 -7 20 -9 21 -10 6 -1 -29 -11 -14 -36 56 -32 91 -55 142 -60 136 -3 -3 4
-53 16 -112 11 -59 18 -110 15 -113 -3 -4 -6 -1 -6 6 0 17 -72 120 -104 150
-29 28 -37 11 -11 -26 8 -12 11 -24 7 -27 -5 -3 -15 12 -22 34 -7 22 -21 47
-32 56 -10 10 -18 20 -18 24 0 11 -179 190 -189 190 -5 0 -11 9 -14 19 -3 11
-19 29 -37 39 -21 13 -27 22 -18 25 8 3 0 10 -19 17 -48 17 -40 30 16 30 72 0
143 -19 230 -61 42 -21 77 -36 79 -34 2 1 -6 40 -17 86 -11 46 -30 136 -41
199 -11 63 -30 151 -42 195 -20 74 -26 84 -85 142 -54 54 -63 68 -64 100 -1
24 -3 30 -6 15 -2 -12 -9 -20 -14 -17 -5 4 -9 -6 -9 -22 0 -22 -2 -25 -10 -13
-8 12 -10 12 -10 1 0 -8 -3 -11 -6 -8 -4 4 -20 -5 -36 -18 -16 -14 -34 -25
-39 -25 -5 0 -14 -10 -19 -22 -8 -21 -9 -22 -10 -3 -1 14 -5 10 -15 -15 -10
-27 -14 -30 -14 -13 -1 12 -6 25 -11 28 -7 4 -9 -2 -5 -18 4 -14 2 -28 -5 -32
-8 -5 -10 5 -6 32 15 117 26 134 147 219 l75 53 -14 85 c-18 109 -5 183 38
220 61 51 106 0 150 -172 10 -40 12 -42 28 -26 9 10 49 61 89 113 l72 96 -95
26 c-52 15 -98 29 -101 33 -3 3 9 12 28 20 19 8 93 39 164 69 l130 55 32 93
c91 267 129 399 116 399 -7 0 -13 -12 -14 -27 -1 -21 -2 -23 -6 -8 -10 43 -22
36 -16 -10 4 -36 2 -46 -8 -43 -7 2 -14 11 -17 19 -3 11 -2 11 7 -1 9 -13 11
-13 11 1 0 35 -25 69 -51 69 -15 0 -32 6 -39 14 -6 8 -17 13 -24 10 -7 -3 -25
9 -39 25 -14 17 -34 31 -44 31 -27 0 -73 23 -73 36 0 7 -11 15 -25 18 -14 4
-25 10 -25 14 0 4 -4 13 -9 20 -6 11 -20 7 -65 -17 -76 -41 -133 -78 -179
-114 -21 -16 -41 -27 -44 -24 -3 3 -2 23 2 44 5 21 7 44 6 52 -1 7 2 10 8 6 6
-3 11 -2 11 4 0 5 29 29 65 52 45 30 61 46 52 52 -8 6 -4 7 10 4 16 -4 24 1
28 14 4 10 10 19 15 19 5 0 16 3 26 7 12 4 15 3 10 -5 -5 -8 -1 -10 10 -5 11
4 13 8 6 11 -7 2 -10 8 -6 13 7 12 5 11 -36 -9z m-90 -72 c-8 -5 -19 -10 -25
-10 -5 0 -3 5 5 10 8 5 20 10 25 10 6 0 3 -5 -5 -10z m-915 -340 c3 -5 1 -10
-4 -10 -6 0 -11 5 -11 10 0 6 2 10 4 10 3 0 8 -4 11 -10z m28 -35 c-3 -9 -8
-14 -10 -11 -3 3 -2 9 2 15 9 16 15 13 8 -4z m-1539 -31 c9 -24 2 -26 -12 -4
-7 11 -8 20 -3 20 5 0 12 -7 15 -16z m1553 -23 c0 -11 -5 -18 -9 -15 -4 3 -5
11 -1 19 7 21 12 19 10 -4z m-789 -619 c5 -17 -13 -15 -27 2 -10 12 -9 14 5
12 10 -2 20 -8 22 -14z m2 -33 c12 -8 10 -9 -9 -4 -17 5 -22 4 -16 -5 5 -9 4
-11 -3 -6 -7 4 -12 11 -12 17 0 12 21 11 40 -2z m1249 -478 c1 -11 -2 -12 -10
-4 -6 6 -18 9 -27 5 -12 -4 -11 0 4 20 16 22 20 24 26 10 4 -10 7 -24 7 -31z
m-39 -21 c0 -5 -4 -10 -10 -10 -5 0 -10 5 -10 10 0 6 5 10 10 10 6 0 10 -4 10
-10z m1635 -810 c3 -6 -1 -7 -9 -4 -18 7 -21 14 -7 14 6 0 13 -4 16 -10z
m-781 -162 c5 -34 4 -48 -2 -38 -6 8 -12 44 -16 80 -7 76 8 42 18 -42z m166
-8 c0 -5 -4 -10 -10 -10 -5 0 -10 5 -10 10 0 6 5 10 10 10 6 0 10 -4 10 -10z
m890 -70 c8 -5 11 -10 5 -10 -5 0 -17 5 -25 10 -8 5 -10 10 -5 10 6 0 17 -5
25 -10z m-2790 -36 c0 -8 -19 -13 -24 -6 -3 5 1 9 9 9 8 0 15 -2 15 -3z m2227
0 c-3 -3 -12 -4 -19 -1 -8 3 -5 6 6 6 11 1 17 -2 13 -5z m170 -20 c-3 -3 -12
-4 -19 -1 -8 3 -5 6 6 6 11 1 17 -2 13 -5z m-3342 -22 c-3 -3 -11 0 -18 7 -9
10 -8 11 6 5 10 -3 15 -9 12 -12z m425 -17 c0 -5 -5 -3 -10 5 -5 8 -10 20 -10
25 0 6 5 3 10 -5 5 -8 10 -19 10 -25z m2808 26 c11 -7 11 -9 -1 -14 -16 -6
-27 0 -27 15 0 10 11 10 28 -1z m116 -2 c11 -1 1 -5 -24 -10 -50 -10 -75 -5
-64 12 4 6 19 9 36 5 17 -3 40 -6 52 -7z m-4117 -5 c-3 -3 -12 -4 -19 -1 -8 3
-5 6 6 6 11 1 17 -2 13 -5z m1507 -10 c3 -8 2 -12 -4 -9 -6 3 -10 10 -10 16 0
14 7 11 14 -7z m-540 -34 c-5 -5 -10 3 -11 18 -1 22 0 24 9 8 6 -10 6 -22 2
-26z m932 13 c-6 -6 -36 9 -36 18 0 5 9 4 20 -3 10 -7 18 -14 16 -15z m-1076
13 c0 -3 -4 -8 -10 -11 -5 -3 -10 -1 -10 4 0 6 5 11 10 11 6 0 10 -2 10 -4z
m-315 -16 c4 -7 -44 -9 -137 -8 l-143 2 130 6 c72 3 133 7 137 8 4 1 10 -2 13
-8z m215 6 c0 -3 -4 -8 -10 -11 -5 -3 -10 -1 -10 4 0 6 5 11 10 11 6 0 10 -2
10 -4z m159 -22 c14 -12 -19 -1 -35 12 -18 14 -18 14 6 3 14 -6 27 -13 29 -15z
m338 4 c-3 -8 -6 -5 -6 6 -1 11 2 17 5 13 3 -3 4 -12 1 -19z m649 7 c16 -8 22
-15 14 -15 -8 1 -24 7 -34 15 -25 19 -16 19 20 0z m-1109 -1 c-3 -3 -12 -4
-19 -1 -8 3 -5 6 6 6 11 1 17 -2 13 -5z m397 -2 c3 -5 -1 -9 -9 -9 -8 0 -12 4
-9 9 3 4 7 8 9 8 2 0 6 -4 9 -8z m286 -13 c0 -5 -4 -9 -10 -9 -5 0 -10 7 -10
16 0 8 5 12 10 9 6 -3 10 -10 10 -16z"/>
<path d="M4165 3489 c-4 -6 -5 -12 -2 -15 2 -3 7 2 10 11 7 17 1 20 -8 4z"/>
<path d="M1053 3365 c0 -7 6 -11 14 -8 7 3 13 6 13 8 0 2 -6 5 -13 8 -8 3 -14
-1 -14 -8z"/>
<path d="M1090 3336 c0 -2 7 -6 15 -10 8 -3 15 -1 15 4 0 6 -7 10 -15 10 -8 0
-15 -2 -15 -4z"/>
<path d="M2645 3279 c-4 -6 -5 -12 -2 -15 2 -3 7 2 10 11 7 17 1 20 -8 4z"/>
<path d="M1120 3245 c7 -8 17 -15 22 -15 5 0 3 7 -6 15 -8 8 -18 15 -22 15 -3
0 -1 -7 6 -15z"/>
<path d="M2286 3057 c3 -10 9 -15 12 -12 3 3 0 11 -7 18 -10 9 -11 8 -5 -6z"/>
<path d="M2312 2940 c0 -14 2 -19 5 -12 2 6 2 18 0 25 -3 6 -5 1 -5 -13z"/>
<path d="M2082 2900 c0 -14 2 -19 5 -12 2 6 2 18 0 25 -3 6 -5 1 -5 -13z"/>
<path d="M1956 2898 c3 -5 10 -6 15 -3 13 9 11 12 -6 12 -8 0 -12 -4 -9 -9z"/>
<path d="M1821 2860 c1 -42 1 -43 9 -16 6 17 5 36 0 45 -7 11 -9 3 -9 -29z"/>
<path d="M1970 2871 c0 -5 5 -13 10 -16 6 -3 10 -2 10 4 0 5 -4 13 -10 16 -5
3 -10 2 -10 -4z"/>
<path d="M2190 2870 c0 -5 5 -10 11 -10 5 0 7 5 4 10 -3 6 -8 10 -11 10 -2 0
-4 -4 -4 -10z"/>
<path d="M1706 2845 c8 -37 14 -45 14 -19 0 10 -5 26 -10 34 -8 11 -9 7 -4
-15z"/>
<path d="M4502 2814 c-51 -7 -120 -21 -152 -30 l-59 -16 22 -29 c27 -37 34
-135 17 -222 -7 -34 -12 -100 -12 -146 1 -96 -10 -125 -61 -164 -20 -15 -44
-41 -56 -60 -19 -31 -75 -226 -67 -234 2 -2 34 -1 72 3 67 7 69 8 129 69 110
112 234 313 325 527 41 99 110 290 110 308 0 14 -156 11 -268 -6z"/>
<path d="M1728 2775 c2 -14 8 -25 12 -25 4 0 5 11 2 25 -2 14 -8 25 -12 25 -4
0 -5 -11 -2 -25z"/>
<path d="M2001 2784 c0 -11 3 -14 6 -6 3 7 2 16 -1 19 -3 4 -6 -2 -5 -13z"/>
<path d="M4135 2691 c-30 -21 -39 -34 -37 -52 1 -18 0 -21 -7 -9 -8 12 -14 11
-35 -9 -14 -13 -23 -29 -19 -35 3 -6 3 -8 -2 -4 -4 4 -34 -18 -67 -50 -108
-104 -130 -122 -140 -116 -7 4 -7 9 0 13 12 7 64 122 58 128 -2 3 -7 -5 -11
-16 -3 -12 -10 -19 -15 -16 -10 6 -22 -23 -14 -36 3 -5 1 -9 -5 -9 -5 0 -11 5
-13 12 -6 16 -58 1 -58 -17 0 -8 -4 -15 -10 -15 -5 0 -10 -7 -10 -15 0 -8 -5
-15 -11 -15 -17 0 -2 -81 26 -143 13 -28 47 -88 74 -132 28 -44 55 -87 60 -95
5 -8 11 -13 13 -10 26 34 161 255 172 281 8 19 24 84 36 144 11 61 30 139 41
174 11 35 19 65 17 66 -2 2 -21 -9 -43 -24z m8 -13 c-4 -7 -8 -19 -9 -26 -4
-23 -14 -27 -14 -6 0 11 5 25 12 32 16 16 21 15 11 0z m-338 -208 c-10 -11
-20 -18 -23 -15 -7 6 18 35 31 35 5 0 2 -9 -8 -20z"/>
<path d="M1885 2680 c-3 -5 3 -10 14 -10 12 0 21 5 21 10 0 6 -6 10 -14 10 -8
0 -18 -4 -21 -10z"/>
<path d="M3915 2630 c3 -5 8 -10 11 -10 2 0 4 5 4 10 0 6 -5 10 -11 10 -5 0
-7 -4 -4 -10z"/>
<path d="M3721 2454 c0 -11 3 -14 6 -6 3 7 2 16 -1 19 -3 4 -6 -2 -5 -13z"/>
<path d="M380 2315 c0 -5 5 -17 10 -25 5 -8 10 -10 10 -5 0 6 -5 17 -10 25 -5
8 -10 11 -10 5z"/>
<path d="M4878 1973 c7 -3 16 -2 19 1 4 3 -2 6 -13 5 -11 0 -14 -3 -6 -6z"/>
<path d="M4950 1970 c15 -5 18 -8 9 -9 -9 -1 -20 -8 -23 -17 -4 -11 -13 -13
-28 -9 -22 7 -22 6 -4 -7 12 -10 15 -17 8 -22 -6 -3 -13 -2 -17 4 -10 16 -30
12 -56 -11 -13 -11 -36 -23 -51 -26 -15 -3 -25 -9 -23 -13 3 -5 -11 -14 -30
-20 -19 -6 -35 -16 -35 -21 0 -5 -20 -14 -45 -21 -24 -7 -40 -15 -34 -19 6 -3
-10 -12 -35 -19 -25 -7 -46 -16 -46 -21 0 -4 -19 -14 -41 -21 -23 -6 -37 -14
-30 -16 11 -4 -45 -38 -101 -62 -16 -7 -28 -16 -28 -22 0 -6 -7 -7 -15 -4 -9
3 -18 -1 -21 -9 -4 -8 -14 -15 -24 -15 -11 0 -21 -4 -25 -10 -9 -15 -34 0 -28
18 4 13 3 14 -5 4 -6 -9 4 -43 31 -108 51 -119 56 -120 195 -26 191 128 388
309 507 465 l36 47 -33 -1 c-31 -1 -32 -1 -8 -9z m-120 -115 c0 -2 -6 -8 -13
-14 -10 -8 -14 -7 -14 2 0 8 6 14 14 14 7 0 13 -1 13 -2z"/>
<path d="M4107 1809 c-4 -15 -2 -19 10 -15 8 3 17 6 19 6 2 0 4 7 4 15 0 23
-27 18 -33 -6z"/>
<path d="M1136 1738 c3 -4 20 -10 39 -14 21 -4 52 -23 82 -53 26 -25 36 -32
23 -16 -14 17 -38 43 -55 58 -29 28 -30 29 -5 22 21 -6 23 -5 12 6 -10 11 -16
11 -32 1 -22 -14 -33 -16 -27 -4 3 4 -5 7 -18 7 -13 0 -21 -3 -19 -7z"/>
<path d="M1290 1680 c0 -5 5 -10 11 -10 5 0 7 5 4 10 -3 6 -8 10 -11 10 -2 0
-4 -4 -4 -10z"/>
<path d="M303 1608 c-2 -18 0 -20 7 -8 12 18 13 30 2 30 -4 0 -9 -10 -9 -22z"/>
<path d="M2801 1024 c0 -11 3 -14 6 -6 3 7 2 16 -1 19 -3 4 -6 -2 -5 -13z"/>
<path d="M2891 1014 c0 -11 3 -14 6 -6 3 7 2 16 -1 19 -3 4 -6 -2 -5 -13z"/>
<path d="M2700 1012 c0 -4 4 -12 9 -17 14 -16 21 -95 8 -95 -9 0 -9 -2 -1 -8
7 -4 14 -16 17 -27 4 -12 5 -10 3 8 -2 15 -1 27 2 27 8 0 42 -43 42 -53 0 -6
2 -8 5 -5 10 10 -25 79 -37 72 -7 -4 -8 -3 -4 4 3 6 -3 31 -15 57 -20 43 -29
54 -29 37z"/>
<path d="M2761 1017 c-1 -4 6 -24 14 -44 8 -19 15 -48 15 -64 0 -16 4 -29 10
-29 14 0 5 52 -18 101 -11 24 -21 40 -21 36z"/>
<path d="M2861 1004 c0 -11 3 -14 6 -6 3 7 2 16 -1 19 -3 4 -6 -2 -5 -13z"/>
<path d="M2816 941 c2 -35 6 -66 9 -69 8 -8 4 69 -5 103 -6 21 -7 10 -4 -34z"/>
<path d="M2690 976 c0 -8 -6 -21 -14 -28 -14 -14 -35 -69 -21 -56 11 11 33
-15 27 -32 -3 -8 -2 -12 2 -9 7 6 16 139 9 139 -2 0 -3 -6 -3 -14z"/>
<path d="M4480 921 c0 -6 5 -13 12 -17 6 -4 8 -3 4 4 -3 6 3 12 16 15 20 4 19
4 -4 6 -16 0 -28 -3 -28 -8z"/>
<path d="M4535 880 c3 -5 1 -10 -5 -10 -6 0 -8 -5 -5 -10 5 -8 11 -7 21 1 14
12 10 29 -7 29 -6 0 -7 -4 -4 -10z"/>
<path d="M1845 872 c-44 -2 -83 -6 -87 -10 -4 -4 31 -6 77 -4 65 3 89 0 109
-13 32 -21 34 -15 4 11 -19 16 -36 19 -103 16z"/>
<path d="M2050 871 c0 -5 7 -11 14 -14 10 -4 13 -1 9 9 -6 15 -23 19 -23 5z"/>
<path d="M1378 863 c12 -2 32 -2 45 0 12 2 2 4 -23 4 -25 0 -35 -2 -22 -4z"/>
<path d="M1980 850 c21 -21 35 -27 26 -11 -3 5 1 12 10 15 9 4 14 9 11 13 -4
3 -13 0 -22 -7 -10 -8 -15 -9 -15 -1 0 6 -7 11 -15 11 -12 0 -11 -4 5 -20z"/>
<path d="M2751 854 c0 -11 3 -14 6 -6 3 7 2 16 -1 19 -3 4 -6 -2 -5 -13z"/>
<path d="M688 853 c7 -3 16 -2 19 1 4 3 -2 6 -13 5 -11 0 -14 -3 -6 -6z"/>
<path d="M2038 843 c7 -3 16 -2 19 1 4 3 -2 6 -13 5 -11 0 -14 -3 -6 -6z"/>
<path d="M825 800 c3 -5 8 -10 11 -10 2 0 4 5 4 10 0 6 -5 10 -11 10 -5 0 -7
-4 -4 -10z"/>
<path d="M1108 763 c6 -2 18 -2 25 0 6 3 1 5 -13 5 -14 0 -19 -2 -12 -5z"/>
<path d="M1358 743 c7 -3 16 -2 19 1 4 3 -2 6 -13 5 -11 0 -14 -3 -6 -6z"/>
</g>
</svg>
