<?xml version="1.0" encoding="utf-8"?>
<!-- Generator: Adobe Illustrator 27.5.0, SVG Export Plug-In . SVG Version: 6.00 Build 0)  -->
<svg version="1.1" xmlns="http://www.w3.org/2000/svg" xmlns:xlink="http://www.w3.org/1999/xlink" x="0px" y="0px"
	 viewBox="0 0 500 500" style="enable-background:new 0 0 500 500;" xml:space="preserve">
<g id="BACKGROUND">
	<g>
		<rect style="fill:#FFFFFF;" width="499" height="501"/>
	</g>
</g>
<g id="OBJECTS">
	<linearGradient id="SVGID_1_" gradientUnits="userSpaceOnUse" x1="242.8124" y1="85.452" x2="264.1848" y2="245.2371">
		<stop  offset="0.2203" style="stop-color:#CBF6F7"/>
		<stop  offset="1" style="stop-color:#B8E6EB"/>
	</linearGradient>
	<path style="fill:url(#SVGID_1_);" d="M384.364,272.646c0,0-178.439-20.525-266.323,2.546c-17.219,4.52-41.679-22.59-48.897-34.822
		c-17.286-29.293-3.583-68.633,25.647-85.096c13.067-7.36,28.725-8.531,43.701-7.74c27.091,1.43,57.945,8.662,82.965-5.78
		c12.991-7.499,24.511-17.293,37.2-25.292c56.972-35.919,142.778-34.294,182.073,27.118
		C472.264,192.862,452.447,275.386,384.364,272.646z"/>
	<g>
		<path style="fill:#FFFFFF;" d="M438.463,185.583c0-12.418-11.783-22.485-26.319-22.485c-2.379,0-4.673,0.294-6.866,0.8
			c-5.509-12.095-19.262-20.671-35.367-20.671c-19.013,0-34.759,11.946-37.518,27.533c-2.596-0.886-5.421-1.387-8.387-1.387
			c-11.031,0-20.209,6.741-22.225,15.662c-2.894-2.56-6.945-4.158-11.439-4.158c-6.521,0-12.107,3.357-14.561,8.154l-41.75,3.972
			l197.497-0.605c3.751-0.011,6.921-2.993,6.934-6.744C438.463,185.63,438.463,185.607,438.463,185.583z"/>
		<path style="fill:#FFFFFF;" d="M162.135,199.425c-0.436-5.507-4.262-10.223-9.467-12.073c-2.893-1.029-5.626-0.957-8.112-0.286
			c-2.926-7.518-10.229-12.849-18.782-12.849c-10.097,0-18.459,7.426-19.924,17.114c-1.379-0.551-2.879-0.862-4.454-0.862
			c-5.858,0-10.732,4.19-11.802,9.735c-1.537-1.591-3.688-2.584-6.075-2.584c-3.463,0-6.429,2.087-7.732,5.068l-22.172,2.469
			l103.55-0.371c2.845-0.01,5.179-2.393,4.981-5.231C162.141,199.512,162.138,199.469,162.135,199.425z"/>
		<path style="fill:#FFFFFF;" d="M453.934,237.554c0-4.962-6.258-8.985-13.977-8.985c-1.264,0-2.482,0.118-3.646,0.32
			c-2.926-4.833-10.229-8.26-18.782-8.26c-10.097,0-18.459,4.774-19.924,11.002c-1.379-0.354-2.879-0.554-4.454-0.554
			c-5.858,0-10.732,2.694-11.803,6.258c-1.537-1.023-3.688-1.661-6.075-1.661c-3.463,0-6.429,1.341-7.732,3.258l-22.172,1.587
			l105.743-0.244c1.507-0.003,2.815-1.186,2.822-2.693C453.934,237.573,453.934,237.564,453.934,237.554z"/>
		<path style="fill:#FFFFFF;" d="M310.279,132.281c0-7.306-7.834-13.228-17.499-13.228c-1.582,0-3.107,0.173-4.565,0.471
			c-3.663-7.115-12.807-12.16-23.515-12.16c-12.641,0-23.11,7.028-24.945,16.197c-1.726-0.521-3.604-0.816-5.576-0.816
			c-7.334,0-13.436,3.965-14.776,9.214c-1.924-1.506-4.618-2.446-7.606-2.446c-4.335,0-8.049,1.975-9.681,4.797l-27.758,2.337
			l131.795-0.357c2.214-0.006,4.115-1.752,4.125-3.966C310.279,132.309,310.279,132.295,310.279,132.281z"/>
	</g>
	<g>
		<g>
			
				<linearGradient id="SVGID_00000039119807907136500780000003877986319929195676_" gradientUnits="userSpaceOnUse" x1="214.7632" y1="196.3867" x2="206.0513" y2="388.6675">
				<stop  offset="0" style="stop-color:#437C57"/>
				<stop  offset="1" style="stop-color:#69A96F"/>
			</linearGradient>
			<path style="fill:url(#SVGID_00000039119807907136500780000003877986319929195676_);" d="M180.53,272.751
				c0,0-5.389-13.921-8.532-16.615c0,0,7.185,8.083,9.43,12.125c0,0-4.041-17.962-8.083-21.555l8.981,17.513l-6.287-24.698
				l9.879,26.046l-3.143-16.615l5.838,15.717c0,0,1.796-13.023-2.694-19.759c0,0,6.287,11.676,6.736,20.208
				c0,0-0.898-15.717-2.245-18.861l4.94,16.166l-0.898-24.698l4.042,23.351l0.898-15.268l0.898,6.287l2.245-12.574l-1.347,21.106
				l2.694-12.574v12.125c0,0,2.694-22.004,7.634-27.393c0,0-4.94,22.902-4.491,33.231c0,0,3.143-10.328,3.143-16.615
				c0,0,1.232,6.983,0.947,13.092c-0.013,0.278-0.029,0.555-0.049,0.829c-0.449,6.287,3.143-21.106,8.981-27.842
				c0,0-4.042,12.574-3.592,19.759c0,0,2.245-6.287,5.389-9.43c0,0-4.491,10.777-4.041,15.717l2.694-5.389l-0.449,7.634
				l5.389-17.962l-0.898,10.777l1.796-2.694l-1.796,9.879l4.94-17.962l0.449,7.634l4.042-7.634c0,0-4.94,12.574-4.042,17.064
				c0,0,4.042-15.268,8.083-20.657c0,0-3.143,7.185-3.143,11.227c0,0,1.347-4.94,2.694-6.736l-1.347,9.43l5.838-13.472
				l-5.389,22.902l4.042-10.328v6.287l6.736-17.513l-5.838,22.004l4.94-12.125l-0.449,10.328c0,0,1.347-8.981,6.287-13.921
				c0,0-6.287,15.717-6.287,22.453H180.53z"/>
			
				<linearGradient id="SVGID_00000145757605110524459110000017431203544955478918_" gradientUnits="userSpaceOnUse" x1="187.8091" y1="195.1656" x2="179.0972" y2="387.4466">
				<stop  offset="0" style="stop-color:#437C57"/>
				<stop  offset="1" style="stop-color:#69A96F"/>
			</linearGradient>
			<path style="fill:url(#SVGID_00000145757605110524459110000017431203544955478918_);" d="M162.557,271.091
				c0,0-3.82-9.867-6.048-11.777c0,0,5.093,5.729,6.684,8.594c0,0-2.865-12.732-5.729-15.278l6.366,12.413l-4.456-17.506
				l7.002,18.461l-2.228-11.777l4.138,11.14c0,0,1.273-9.23-1.91-14.005c0,0,4.456,8.276,4.774,14.323c0,0-0.637-11.14-1.592-13.368
				l3.501,11.458l-0.637-17.506l2.865,16.551l0.637-10.822l0.637,4.456l1.591-8.912l-0.955,14.96l1.91-8.912v8.594
				c0,0,1.91-15.596,5.411-19.416c0,0-3.501,16.233-3.183,23.554c0,0,2.228-7.321,2.228-11.777c0,0,0.874,4.95,0.671,9.28
				c-0.009,0.197-0.021,0.393-0.035,0.587c-0.318,4.456,2.228-14.96,6.366-19.734c0,0-2.865,8.912-2.546,14.005
				c0,0,1.591-4.456,3.82-6.684c0,0-3.183,7.639-2.865,11.14l1.91-3.819l-0.318,5.411l3.82-12.732l-0.637,7.639l1.273-1.91
				l-1.273,7.002l3.501-12.732l0.318,5.411l2.865-5.411c0,0-3.501,8.912-2.865,12.095c0,0,2.865-10.822,5.729-14.641
				c0,0-2.228,5.093-2.228,7.957c0,0,0.955-3.501,1.91-4.774l-0.955,6.684l4.138-9.549l-3.82,16.233l2.865-7.321v4.456l4.774-12.413
				l-4.138,15.596l3.501-8.594l-0.318,7.321c0,0,0.955-6.366,4.456-9.867c0,0-4.456,11.14-4.456,15.915H162.557z"/>
		</g>
		<g>
			
				<linearGradient id="SVGID_00000142887003230026177460000007064629836871381402_" gradientUnits="userSpaceOnUse" x1="403.9369" y1="204.9577" x2="395.225" y2="397.2386">
				<stop  offset="0" style="stop-color:#437C57"/>
				<stop  offset="1" style="stop-color:#69A96F"/>
			</linearGradient>
			<path style="fill:url(#SVGID_00000142887003230026177460000007064629836871381402_);" d="M369.491,286.011
				c0,0-5.389-13.921-8.532-16.615c0,0,7.185,8.083,9.43,12.125c0,0-4.042-17.962-8.083-21.555l8.981,17.513L365,252.781
				l9.879,26.046l-3.143-16.615l5.838,15.717c0,0,1.796-13.023-2.694-19.759c0,0,6.287,11.676,6.736,20.208
				c0,0-0.898-15.717-2.245-18.861l4.94,16.166l-0.898-24.698l4.042,23.351l0.898-15.268l0.898,6.287l2.245-12.574l-1.347,21.106
				l2.694-12.574v12.125c0,0,2.694-22.004,7.634-27.393c0,0-4.94,22.902-4.491,33.231c0,0,3.143-10.328,3.143-16.615
				c0,0,1.232,6.983,0.947,13.092c-0.013,0.278-0.029,0.555-0.049,0.829c-0.449,6.287,3.143-21.106,8.981-27.842
				c0,0-4.042,12.574-3.592,19.759c0,0,2.245-6.287,5.389-9.43c0,0-4.491,10.777-4.042,15.717l2.694-5.389l-0.449,7.634
				l5.389-17.962l-0.898,10.777l1.796-2.694l-1.796,9.879l4.94-17.962l0.449,7.634l4.042-7.634c0,0-4.94,12.574-4.042,17.064
				c0,0,4.042-15.268,8.083-20.657c0,0-3.143,7.185-3.143,11.227c0,0,1.347-4.94,2.694-6.736l-1.347,9.43l5.838-13.472
				l-5.389,22.902l4.042-10.328v6.287l6.736-17.513l-5.838,22.004l4.94-12.125l-0.449,10.328c0,0,1.347-8.981,6.287-13.921
				c0,0-6.287,15.717-6.287,22.453H369.491z"/>
			
				<linearGradient id="SVGID_00000106148007829733842250000000822706921158727355_" gradientUnits="userSpaceOnUse" x1="376.9828" y1="203.7363" x2="368.2708" y2="396.0173">
				<stop  offset="0" style="stop-color:#437C57"/>
				<stop  offset="1" style="stop-color:#69A96F"/>
			</linearGradient>
			<path style="fill:url(#SVGID_00000106148007829733842250000000822706921158727355_);" d="M351.518,284.352
				c0,0-3.82-9.867-6.048-11.777c0,0,5.093,5.729,6.684,8.594c0,0-2.865-12.732-5.729-15.278l6.366,12.413l-4.456-17.506
				l7.002,18.461l-2.228-11.777l4.138,11.14c0,0,1.273-9.23-1.91-14.005c0,0,4.456,8.276,4.774,14.323c0,0-0.637-11.14-1.591-13.368
				l3.501,11.458l-0.637-17.506l2.865,16.551l0.637-10.822l0.637,4.456l1.591-8.912l-0.955,14.96l1.91-8.912v8.594
				c0,0,1.91-15.596,5.411-19.416c0,0-3.501,16.233-3.183,23.554c0,0,2.228-7.321,2.228-11.777c0,0,0.873,4.95,0.671,9.28
				c-0.009,0.197-0.021,0.393-0.035,0.587c-0.318,4.456,2.228-14.96,6.366-19.734c0,0-2.865,8.912-2.546,14.005
				c0,0,1.591-4.456,3.819-6.684c0,0-3.183,7.639-2.865,11.14l1.91-3.82l-0.318,5.411l3.82-12.732l-0.637,7.639l1.273-1.91
				l-1.273,7.002l3.501-12.732l0.318,5.411l2.865-5.411c0,0-3.501,8.912-2.865,12.095c0,0,2.865-10.822,5.729-14.641
				c0,0-2.228,5.093-2.228,7.957c0,0,0.955-3.501,1.91-4.774l-0.955,6.684l4.138-9.549l-3.82,16.233l2.865-7.321v4.456l4.774-12.413
				l-4.138,15.596l3.501-8.594l-0.318,7.321c0,0,0.955-6.366,4.456-9.867c0,0-4.456,11.14-4.456,15.915H351.518z"/>
		</g>
		<g>
			
				<linearGradient id="SVGID_00000114049873903431384580000004266350269139451033_" gradientUnits="userSpaceOnUse" x1="121.5273" y1="192.1624" x2="112.8154" y2="384.4432">
				<stop  offset="0" style="stop-color:#437C57"/>
				<stop  offset="1" style="stop-color:#69A96F"/>
			</linearGradient>
			<path style="fill:url(#SVGID_00000114049873903431384580000004266350269139451033_);" d="M86.601,283.801
				c0,0-5.389-13.921-8.532-16.615c0,0,7.185,8.083,9.43,12.125c0,0-4.042-17.962-8.083-21.555l8.981,17.513l-6.287-24.698
				l9.879,26.046l-3.144-16.615l5.838,15.717c0,0,1.796-13.023-2.694-19.759c0,0,6.287,11.676,6.736,20.208
				c0,0-0.898-15.717-2.245-18.861l4.94,16.166l-0.898-24.698l4.042,23.351l0.898-15.268l0.898,6.287l2.245-12.574l-1.347,21.106
				l2.694-12.574v12.125c0,0,2.694-22.004,7.634-27.393c0,0-4.94,22.902-4.491,33.231c0,0,3.144-10.328,3.144-16.615
				c0,0,1.232,6.983,0.947,13.092c-0.013,0.278-0.029,0.555-0.049,0.829c-0.449,6.287,3.143-21.106,8.981-27.842
				c0,0-4.042,12.574-3.593,19.759c0,0,2.245-6.287,5.389-9.43c0,0-4.491,10.777-4.042,15.717l2.694-5.389l-0.449,7.634
				l5.389-17.962l-0.898,10.777l1.796-2.694l-1.796,9.879l4.94-17.962l0.449,7.634l4.042-7.634c0,0-4.94,12.574-4.042,17.064
				c0,0,4.042-15.268,8.083-20.657c0,0-3.143,7.185-3.143,11.227c0,0,1.347-4.94,2.694-6.736l-1.347,9.43l5.838-13.472
				l-5.389,22.902l4.042-10.328v6.287l6.736-17.513l-5.838,22.004l4.94-12.125l-0.449,10.328c0,0,1.347-8.981,6.287-13.921
				c0,0-6.287,15.717-6.287,22.453H86.601z"/>
			
				<linearGradient id="SVGID_00000054244154309909221050000018369371464002868121_" gradientUnits="userSpaceOnUse" x1="94.5731" y1="190.9415" x2="85.8612" y2="383.2219">
				<stop  offset="0" style="stop-color:#437C57"/>
				<stop  offset="1" style="stop-color:#69A96F"/>
			</linearGradient>
			<path style="fill:url(#SVGID_00000054244154309909221050000018369371464002868121_);" d="M68.629,282.142
				c0,0-3.819-9.867-6.047-11.777c0,0,5.093,5.729,6.684,8.594c0,0-2.865-12.732-5.729-15.278l6.366,12.413l-4.456-17.506
				l7.002,18.461l-2.228-11.777l4.138,11.14c0,0,1.273-9.231-1.91-14.005c0,0,4.456,8.276,4.774,14.323
				c0,0-0.637-11.14-1.591-13.368l3.501,11.458l-0.637-17.506l2.865,16.551l0.637-10.822l0.637,4.456l1.591-8.912l-0.955,14.96
				l1.91-8.912v8.594c0,0,1.91-15.596,5.411-19.416c0,0-3.501,16.233-3.183,23.554c0,0,2.228-7.321,2.228-11.777
				c0,0,0.873,4.95,0.671,9.28c-0.009,0.197-0.021,0.393-0.034,0.587c-0.318,4.456,2.228-14.96,6.366-19.734
				c0,0-2.865,8.912-2.546,14.005c0,0,1.591-4.456,3.819-6.684c0,0-3.183,7.639-2.865,11.14l1.91-3.819l-0.318,5.411l3.819-12.732
				l-0.637,7.639l1.273-1.91l-1.273,7.002l3.501-12.732l0.318,5.411l2.865-5.411c0,0-3.501,8.912-2.865,12.095
				c0,0,2.865-10.822,5.729-14.641c0,0-2.228,5.093-2.228,7.957c0,0,0.955-3.501,1.91-4.774l-0.955,6.684l4.138-9.549l-3.82,16.233
				l2.865-7.321v4.456l4.774-12.413l-4.138,15.596l3.501-8.594l-0.318,7.321c0,0,0.955-6.366,4.456-9.867
				c0,0-4.456,11.14-4.456,15.914H68.629z"/>
		</g>
		<g>
			
				<linearGradient id="SVGID_00000108992055658098215480000005687150367946694566_" gradientUnits="userSpaceOnUse" x1="311.1136" y1="200.7522" x2="302.4017" y2="393.0329">
				<stop  offset="0" style="stop-color:#437C57"/>
				<stop  offset="1" style="stop-color:#69A96F"/>
			</linearGradient>
			<path style="fill:url(#SVGID_00000108992055658098215480000005687150367946694566_);" d="M271.262,272.751
				c0,0-6.407-16.552-10.145-19.755c0,0,8.543,9.611,11.213,14.416c0,0-4.805-21.357-9.611-25.629l10.678,20.823l-7.475-29.366
				l11.747,30.968l-3.738-19.755l6.941,18.688c0,0,2.136-15.484-3.203-23.493c0,0,7.475,13.882,8.009,24.027
				c0,0-1.068-18.687-2.67-22.425l5.873,19.221l-1.068-29.366l4.805,27.764l1.068-18.154l1.068,7.475l2.67-14.95l-1.602,25.095
				l3.204-14.95v14.416c0,0,3.204-26.162,9.077-32.57c0,0-5.873,27.23-5.339,39.511c0,0,3.737-12.28,3.737-19.755
				c0,0,1.465,8.303,1.126,15.567c-0.016,0.331-0.035,0.66-0.058,0.985c-0.534,7.475,3.737-25.095,10.679-33.104
				c0,0-4.805,14.95-4.271,23.493c0,0,2.67-7.475,6.407-11.213c0,0-5.339,12.814-4.805,18.688l3.203-6.407l-0.534,9.077
				l6.407-21.357l-1.068,12.814l2.136-3.204l-2.136,11.747l5.873-21.357l0.534,9.077l4.805-9.077c0,0-5.873,14.95-4.805,20.289
				c0,0,4.805-18.154,9.611-24.561c0,0-3.737,8.543-3.737,13.348c0,0,1.602-5.873,3.204-8.009l-1.602,11.213l6.941-16.018
				l-6.407,27.23l4.805-12.28v7.475l8.009-20.823l-6.941,26.162l5.873-14.416l-0.534,12.28c0,0,1.602-10.679,7.475-16.552
				c0,0-7.475,18.687-7.475,26.696H271.262z"/>
			
				<linearGradient id="SVGID_00000013193364400701309690000014633059338774710921_" gradientUnits="userSpaceOnUse" x1="279.0655" y1="199.3002" x2="270.3536" y2="391.5808">
				<stop  offset="0" style="stop-color:#437C57"/>
				<stop  offset="1" style="stop-color:#69A96F"/>
			</linearGradient>
			<path style="fill:url(#SVGID_00000013193364400701309690000014633059338774710921_);" d="M249.892,270.778
				c0,0-4.541-11.732-7.19-14.003c0,0,6.055,6.812,7.947,10.218c0,0-3.406-15.138-6.812-18.165l7.569,14.759l-5.298-20.814
				l8.326,21.95l-2.649-14.003l4.92,13.246c0,0,1.514-10.975-2.271-16.652c0,0,5.298,9.84,5.677,17.03
				c0,0-0.757-13.246-1.892-15.895l4.163,13.624l-0.757-20.814l3.406,19.679l0.757-12.867l0.757,5.298l1.892-10.596l-1.135,17.787
				l2.271-10.596v10.218c0,0,2.271-18.544,6.434-23.085c0,0-4.163,19.301-3.784,28.005c0,0,2.649-8.704,2.649-14.003
				c0,0,1.039,5.885,0.798,11.033c-0.011,0.234-0.025,0.467-0.041,0.698c-0.379,5.298,2.649-17.787,7.569-23.463
				c0,0-3.406,10.596-3.028,16.652c0,0,1.892-5.298,4.541-7.947c0,0-3.785,9.083-3.406,13.246l2.271-4.541l-0.378,6.434
				l4.541-15.138l-0.757,9.083l1.514-2.271l-1.514,8.326l4.163-15.138l0.378,6.434l3.406-6.434c0,0-4.163,10.596-3.406,14.381
				c0,0,3.406-12.867,6.812-17.409c0,0-2.649,6.055-2.649,9.461c0,0,1.135-4.163,2.271-5.677l-1.135,7.947l4.92-11.353
				l-4.541,19.301l3.406-8.704v5.298l5.677-14.759l-4.92,18.544l4.163-10.218l-0.378,8.704c0,0,1.135-7.569,5.298-11.732
				c0,0-5.298,13.246-5.298,18.922H249.892z"/>
		</g>
	</g>
	<g>
		
			<linearGradient id="SVGID_00000003786867423668291030000002385058737338166196_" gradientUnits="userSpaceOnUse" x1="252.985" y1="198.1183" x2="244.2731" y2="390.3987">
			<stop  offset="0" style="stop-color:#437C57"/>
			<stop  offset="1" style="stop-color:#69A96F"/>
		</linearGradient>
		
			<ellipse style="fill:url(#SVGID_00000003786867423668291030000002385058737338166196_);" cx="248.93" cy="287.61" rx="197.953" ry="26.291"/>
		
			<linearGradient id="SVGID_00000026152327016619919140000011092438239909383590_" gradientUnits="userSpaceOnUse" x1="291.4859" y1="199.8629" x2="282.774" y2="392.1436">
			<stop  offset="0" style="stop-color:#437C57"/>
			<stop  offset="1" style="stop-color:#69A96F"/>
		</linearGradient>
		
			<ellipse style="fill:url(#SVGID_00000026152327016619919140000011092438239909383590_);" cx="286.047" cy="319.915" rx="197.953" ry="26.291"/>
		
			<linearGradient id="SVGID_00000014611863717680125860000016497432998151847334_" gradientUnits="userSpaceOnUse" x1="221.521" y1="196.6929" x2="212.8091" y2="388.9736">
			<stop  offset="0" style="stop-color:#437C57"/>
			<stop  offset="1" style="stop-color:#69A96F"/>
		</linearGradient>
		
			<ellipse style="fill:url(#SVGID_00000014611863717680125860000016497432998151847334_);" cx="215.938" cy="319.915" rx="197.954" ry="26.291"/>
		
			<linearGradient id="SVGID_00000095313655002457340670000012461969566390801054_" gradientUnits="userSpaceOnUse" x1="287.2105" y1="199.6687" x2="278.4986" y2="391.9495">
			<stop  offset="0" style="stop-color:#437C57"/>
			<stop  offset="1" style="stop-color:#69A96F"/>
		</linearGradient>
		
			<ellipse style="fill:url(#SVGID_00000095313655002457340670000012461969566390801054_);" cx="280.548" cy="346.721" rx="197.953" ry="26.291"/>
		
			<linearGradient id="SVGID_00000063615147536546999310000015235909551467959218_" gradientUnits="userSpaceOnUse" x1="276.8405" y1="199.1991" x2="268.1286" y2="391.4798">
			<stop  offset="0" style="stop-color:#437C57"/>
			<stop  offset="1" style="stop-color:#69A96F"/>
		</linearGradient>
		
			<ellipse style="fill:url(#SVGID_00000063615147536546999310000015235909551467959218_);" cx="269.207" cy="367.685" rx="197.953" ry="26.291"/>
		
			<linearGradient id="SVGID_00000104683462297898100990000015075986557985163178_" gradientUnits="userSpaceOnUse" x1="226.8797" y1="196.9354" x2="218.1678" y2="389.2161">
			<stop  offset="0" style="stop-color:#437C57"/>
			<stop  offset="1" style="stop-color:#69A96F"/>
		</linearGradient>
		
			<ellipse style="fill:url(#SVGID_00000104683462297898100990000015075986557985163178_);" cx="220.062" cy="347.408" rx="197.953" ry="26.291"/>
	</g>
	<g>
		
			<linearGradient id="SVGID_00000100375068658336288330000005124190677379502223_" gradientUnits="userSpaceOnUse" x1="108.5851" y1="312.9668" x2="481.6263" y2="339.1805">
			<stop  offset="0.1706" style="stop-color:#FFFFFF"/>
			<stop  offset="0.8725" style="stop-color:#FCACBB"/>
		</linearGradient>
		<path style="fill:url(#SVGID_00000100375068658336288330000005124190677379502223_);" d="M141.502,289.852
			c0,0,35.458,3.896,63.122,2.728c27.665-1.169,63.523-6.998,89.818-4.083c26.296,2.914,95.653,13.824,126.824,8.37l-38.575,54.94
			c0,0-102.477-1.169-134.038,0c-31.561,1.169-105.312-0.662-132.869-4.676c-40.133-5.845-79.488-1.169-79.488-1.169
			L141.502,289.852z"/>
		<g>
			<defs>
				<path id="SVGID_00000001623021882922890580000017874261520642982287_" d="M141.502,289.852c0,0,35.458,3.896,63.122,2.728
					c27.665-1.169,63.523-6.998,89.818-4.083c26.296,2.914,95.653,13.824,126.824,8.37l-55.33,55.33c0,0-85.722-1.559-117.283-0.39
					c-31.561,1.169-105.312-0.662-132.869-4.676c-40.133-5.845-79.488-1.169-79.488-1.169L141.502,289.852z"/>
			</defs>
			<clipPath id="SVGID_00000130619957236714319450000005100634765348464001_">
				<use xlink:href="#SVGID_00000001623021882922890580000017874261520642982287_"  style="overflow:visible;"/>
			</clipPath>
			<g style="clip-path:url(#SVGID_00000130619957236714319450000005100634765348464001_);">
				
					<linearGradient id="SVGID_00000103967218449206232900000016699118510594620811_" gradientUnits="userSpaceOnUse" x1="377.0595" y1="267.9622" x2="348.9314" y2="401.4327">
					<stop  offset="0" style="stop-color:#FA8298"/>
					<stop  offset="0.1868" style="stop-color:#FA7E94"/>
					<stop  offset="0.3872" style="stop-color:#F9718A"/>
					<stop  offset="0.5939" style="stop-color:#F95B78"/>
					<stop  offset="0.8036" style="stop-color:#F83E60"/>
					<stop  offset="0.9505" style="stop-color:#F7244B"/>
				</linearGradient>
				<polygon style="fill:url(#SVGID_00000103967218449206232900000016699118510594620811_);" points="412.305,287.124 
					355.807,370.119 317.232,365.443 379.575,287.124 				"/>
				
					<linearGradient id="SVGID_00000031198744965963684840000002972253680430256286_" gradientUnits="userSpaceOnUse" x1="321.9322" y1="256.3445" x2="293.8041" y2="389.8146">
					<stop  offset="0" style="stop-color:#FA8298"/>
					<stop  offset="0.1868" style="stop-color:#FA7E94"/>
					<stop  offset="0.3872" style="stop-color:#F9718A"/>
					<stop  offset="0.5939" style="stop-color:#F95B78"/>
					<stop  offset="0.8036" style="stop-color:#F83E60"/>
					<stop  offset="0.9505" style="stop-color:#F7244B"/>
				</linearGradient>
				<polygon style="fill:url(#SVGID_00000031198744965963684840000002972253680430256286_);" points="357.755,285.566 
					295.412,365.053 257.616,362.326 332.818,283.617 				"/>
				
					<linearGradient id="SVGID_00000065772287408638732730000004962814347639769245_" gradientUnits="userSpaceOnUse" x1="267.6003" y1="244.8944" x2="239.4723" y2="378.3648">
					<stop  offset="0" style="stop-color:#FA8298"/>
					<stop  offset="0.1868" style="stop-color:#FA7E94"/>
					<stop  offset="0.3872" style="stop-color:#F9718A"/>
					<stop  offset="0.5939" style="stop-color:#F95B78"/>
					<stop  offset="0.8036" style="stop-color:#F83E60"/>
					<stop  offset="0.9505" style="stop-color:#F7244B"/>
				</linearGradient>
				<polygon style="fill:url(#SVGID_00000065772287408638732730000004962814347639769245_);" points="305.932,284.007 
					234.237,364.274 196.442,361.547 274.761,284.786 				"/>
				
					<linearGradient id="SVGID_00000047018182351253760440000011558343019479903374_" gradientUnits="userSpaceOnUse" x1="205.6791" y1="231.8448" x2="177.5511" y2="365.3149">
					<stop  offset="0" style="stop-color:#FA8298"/>
					<stop  offset="0.1868" style="stop-color:#FA7E94"/>
					<stop  offset="0.3872" style="stop-color:#F9718A"/>
					<stop  offset="0.5939" style="stop-color:#F95B78"/>
					<stop  offset="0.8036" style="stop-color:#F83E60"/>
					<stop  offset="0.9505" style="stop-color:#F7244B"/>
				</linearGradient>
				<polygon style="fill:url(#SVGID_00000047018182351253760440000011558343019479903374_);" points="247.096,282.449 
					171.505,361.547 127.085,357.65 215.535,284.786 				"/>
				
					<linearGradient id="SVGID_00000079474686889609567430000018073664368477040772_" gradientUnits="userSpaceOnUse" x1="142.9037" y1="218.6153" x2="114.7756" y2="352.0855">
					<stop  offset="0" style="stop-color:#FA8298"/>
					<stop  offset="0.1868" style="stop-color:#FA7E94"/>
					<stop  offset="0.3872" style="stop-color:#F9718A"/>
					<stop  offset="0.5939" style="stop-color:#F95B78"/>
					<stop  offset="0.8036" style="stop-color:#F83E60"/>
					<stop  offset="0.9505" style="stop-color:#F7244B"/>
				</linearGradient>
				<polygon style="fill:url(#SVGID_00000079474686889609567430000018073664368477040772_);" points="187.48,286.735 99.236,356.91 
					56.559,348.688 156.308,284.007 				"/>
			</g>
		</g>
	</g>
	<g>
		
			<linearGradient id="SVGID_00000024704413316458033310000017886120576255272613_" gradientUnits="userSpaceOnUse" x1="207.0086" y1="322.4303" x2="346.9464" y2="317.5203">
			<stop  offset="0" style="stop-color:#479C91"/>
			<stop  offset="1" style="stop-color:#004C37;stop-opacity:0"/>
		</linearGradient>
		<path style="fill:url(#SVGID_00000024704413316458033310000017886120576255272613_);" d="M365.952,322.74
			c0,0,6.795,4.745,5.44,4.907c-29.505,3.54-99.749-5.065-117.283-3.507c-17.534,1.559-45.934,8.726-47.515,8.649
			c-1.58-0.077,1.436-11.964,1.436-11.964l9.571-3.35l27.936-7.752l104.035,1.559L365.952,322.74z"/>
		<g>
			<g>
				
					<linearGradient id="SVGID_00000024697450652229060650000004306532129179773112_" gradientUnits="userSpaceOnUse" x1="237.121" y1="2.3678" x2="382.362" y2="278.8845" gradientTransform="matrix(0.9994 0.0349 -0.0349 0.9994 -22.0802 47.4446)">
					<stop  offset="0.0013" style="stop-color:#FFFFFF"/>
					<stop  offset="0.9448" style="stop-color:#ED9352"/>
				</linearGradient>
				<path style="fill:url(#SVGID_00000024697450652229060650000004306532129179773112_);" d="M328.397,222.005l-0.24-7.947
					c0,0-7.235-1.282-12.651,8.666c-5.416,9.948-20.061,27.37-20.061,27.37l-21.883-9.732l-9.321-12.854l0.071,9.802l4.264,11.846
					l21.222,17.507c0,0,12.864,0.06,13.308-1.484C303.549,263.634,328.397,222.005,328.397,222.005z"/>
				
					<linearGradient id="SVGID_00000094620024874145548930000001865717475041235095_" gradientUnits="userSpaceOnUse" x1="295.3782" y1="175.3724" x2="349.8277" y2="288.4641">
					<stop  offset="0" style="stop-color:#FA8298"/>
					<stop  offset="0.1868" style="stop-color:#FA7E94"/>
					<stop  offset="0.3872" style="stop-color:#F9718A"/>
					<stop  offset="0.5939" style="stop-color:#F95B78"/>
					<stop  offset="0.8036" style="stop-color:#F83E60"/>
					<stop  offset="0.9505" style="stop-color:#F7244B"/>
				</linearGradient>
				<path style="fill:url(#SVGID_00000094620024874145548930000001865717475041235095_);" d="M328.157,214.059
					c0,0-7.235-1.282-12.651,8.666c-1.6,2.939-4.007,6.531-6.602,10.133c2.776,1.237,6.155,3.495,8.545,7.568
					c5.71-9.643,10.949-18.421,10.949-18.421L328.157,214.059z"/>
			</g>
			<g>
				
					<radialGradient id="SVGID_00000103987448726925467760000009985554879549654463_" cx="688.5393" cy="-400.4257" r="7.0341" gradientTransform="matrix(0.958 0.2868 -0.2868 0.958 -529.9783 379.0455)" gradientUnits="userSpaceOnUse">
					<stop  offset="0" style="stop-color:#003557"/>
					<stop  offset="0.4522" style="stop-color:#013256"/>
					<stop  offset="0.8302" style="stop-color:#062753"/>
					<stop  offset="1" style="stop-color:#092051"/>
				</radialGradient>
				<polygon style="fill:url(#SVGID_00000103987448726925467760000009985554879549654463_);" points="251.758,188.12 
					249.971,185.967 237.991,195.096 243.456,201.189 				"/>
				<g>
					<g>
						
							<linearGradient id="SVGID_00000048482595608092682690000009120800175335122317_" gradientUnits="userSpaceOnUse" x1="684.9883" y1="-414.3316" x2="695.522" y2="-380.6238" gradientTransform="matrix(0.958 0.2868 -0.2868 0.958 -529.9783 379.0455)">
							<stop  offset="0.1706" style="stop-color:#FFFFFF"/>
							<stop  offset="0.8725" style="stop-color:#FCACBB"/>
						</linearGradient>
						<polygon style="fill:url(#SVGID_00000048482595608092682690000009120800175335122317_);" points="248.564,197.105 
							240.661,195.597 237.991,195.096 250.573,186.532 252.447,186.708 						"/>
						
							<linearGradient id="SVGID_00000078005151626507659820000004000146294969116804_" gradientUnits="userSpaceOnUse" x1="689.3823" y1="-411.3829" x2="700.0834" y2="-377.1389" gradientTransform="matrix(0.958 0.2868 -0.2868 0.958 -529.9783 379.0455)">
							<stop  offset="0.1706" style="stop-color:#FFFFFF"/>
							<stop  offset="0.8725" style="stop-color:#FCACBB"/>
						</linearGradient>
						<polygon style="fill:url(#SVGID_00000078005151626507659820000004000146294969116804_);" points="258.574,203.569 
							252.447,186.708 238.698,195.308 248.008,213.122 						"/>
					</g>
					
						<linearGradient id="SVGID_00000040577165099447696920000014979868662991321988_" gradientUnits="userSpaceOnUse" x1="683.3145" y1="-383.9208" x2="723.1814" y2="-383.9208" gradientTransform="matrix(0.958 0.2868 -0.2868 0.958 -529.9783 379.0455)">
						<stop  offset="0.1706" style="stop-color:#FFFFFF"/>
						<stop  offset="0.8725" style="stop-color:#FCACBB"/>
					</linearGradient>
					<polyline style="fill:url(#SVGID_00000040577165099447696920000014979868662991321988_);" points="249.807,207.11 
						238.45,194.848 260.758,191.122 268.28,234.217 262.838,239.524 250.974,207.074 					"/>
					
						<linearGradient id="SVGID_00000168112185632404343300000011211086280715190663_" gradientUnits="userSpaceOnUse" x1="689.0303" y1="-407.4759" x2="706.4905" y2="-373.8026" gradientTransform="matrix(0.958 0.2868 -0.2868 0.958 -529.9783 379.0455)">
						<stop  offset="0" style="stop-color:#003557"/>
						<stop  offset="0.4522" style="stop-color:#013256"/>
						<stop  offset="0.8302" style="stop-color:#062753"/>
						<stop  offset="1" style="stop-color:#092051"/>
					</linearGradient>
					<polyline style="fill:url(#SVGID_00000168112185632404343300000011211086280715190663_);" points="265.35,241.431 
						253.682,241.792 237.991,195.096 239.617,194.812 258.956,193.28 267.469,238.213 					"/>
				</g>
			</g>
			
				<linearGradient id="SVGID_00000181768162819092401780000015928343204350384817_" gradientUnits="userSpaceOnUse" x1="269.3163" y1="102.6151" x2="406.2323" y2="363.2823">
				<stop  offset="0.0013" style="stop-color:#FFFFFF"/>
				<stop  offset="0.9448" style="stop-color:#ED9352"/>
			</linearGradient>
			<path style="fill:url(#SVGID_00000181768162819092401780000015928343204350384817_);" d="M330.065,185.746
				c2.616,9.644-1.959,19.278-10.217,21.518c-8.259,2.24-17.074-3.762-19.69-13.407c-2.616-9.644,1.959-19.278,10.217-21.518
				C318.634,170.1,327.449,176.102,330.065,185.746z"/>
			
				<linearGradient id="SVGID_00000181808126986988062100000013648073168091844504_" gradientUnits="userSpaceOnUse" x1="276.5759" y1="98.8021" x2="413.4922" y2="359.4697">
				<stop  offset="0.0013" style="stop-color:#FFFFFF"/>
				<stop  offset="0.9448" style="stop-color:#ED9352"/>
			</linearGradient>
			<path style="fill:url(#SVGID_00000181808126986988062100000013648073168091844504_);" d="M326.583,193.999l2.728-1.559
				c0,0,7.014,10.131,14.027,10.91c7.014,0.779-14.027,13.248-14.027,13.248l-3.117,1.169c0,0-1.948-11.3-6.234-14.807
				S326.583,193.999,326.583,193.999z"/>
			
				<linearGradient id="SVGID_00000141433079253209648950000014562551021521736865_" gradientUnits="userSpaceOnUse" x1="273.8411" y1="100.2963" x2="410.6996" y2="360.854">
				<stop  offset="0.0013" style="stop-color:#FFFFFF"/>
				<stop  offset="0.9448" style="stop-color:#ED9352"/>
			</linearGradient>
			<path style="fill:url(#SVGID_00000141433079253209648950000014562551021521736865_);" d="M335.935,206.857l8.474-3.14
				c0,0,13.736,4.699,25.425,23.402c11.689,18.703,21.82,57.667,22.989,70.915c0,0,2.728,19.093-12.469,23.379
				c-15.196,4.286-38.185-45.199-38.185-45.199l-7.793-16.755c0,0-7.014,0.779-10.131-7.014c-3.117-7.793,1.195-38.612,1.195-38.612
				L335.935,206.857z"/>
			<g>
				
					<linearGradient id="SVGID_00000043445153339022643240000000426063665403464856_" gradientUnits="userSpaceOnUse" x1="184.1614" y1="126.4747" x2="321.0771" y2="387.1412">
					<stop  offset="0.0013" style="stop-color:#FFFFFF"/>
					<stop  offset="0.9448" style="stop-color:#ED9352"/>
				</linearGradient>
				<path style="fill:url(#SVGID_00000043445153339022643240000000426063665403464856_);" d="M380.355,290.344l-38.77-21.338
					c0,0-43.017-16.929-53.54-14.602c-10.523,2.327-27.679,14-27.679,14l-56.929,41.246c0,0-14.422,5.051-20.267,5.435
					c-5.845,0.384-21.431,0.758-15.98,5.049c5.451,4.292,14.802,4.691,21.427,3.918c6.625-0.773,11.685,4.687,16.752,2.355
					c5.068-2.333,2.931-8.374,9.556-9.926c6.626-1.552,40.923-10.09,52.621-19.04c11.698-8.95,12.87-12.066,18.325-12.061
					c5.455,0.005,58.38,55.452,96.599,27.793c0,0,9.755-7.815,6.846-21.261C386.406,278.465,380.355,290.344,380.355,290.344z"/>
				
					<linearGradient id="SVGID_00000141446849925137277970000011195388183067546530_" gradientUnits="userSpaceOnUse" x1="342.0173" y1="255.7509" x2="346.5432" y2="271.4584">
					<stop  offset="0.0013" style="stop-color:#FFDE3E"/>
					<stop  offset="0.9448" style="stop-color:#ED9352"/>
				</linearGradient>
				<path style="fill:url(#SVGID_00000141446849925137277970000011195388183067546530_);" d="M380.355,290.344l-38.77-21.338
					c0,0-5.301-2.162-14.222-5.26c2.338,2.338,7.994,18.381-3.507,36.237c-0.939,1.458-3.134,7.506-3.506,8.8
					c18.967,10.874,42.484,18.6,62.12,4.39c0,0,9.755-7.815,6.846-21.261C386.406,278.465,380.355,290.344,380.355,290.344z"/>
			</g>
			
				<linearGradient id="SVGID_00000166648472571898777830000016978540949312609460_" gradientUnits="userSpaceOnUse" x1="246.8874" y1="129.1933" x2="373.4582" y2="370.1647">
				<stop  offset="0.0013" style="stop-color:#FFFFFF"/>
				<stop  offset="0.9448" style="stop-color:#ED9352"/>
			</linearGradient>
			<path style="fill:url(#SVGID_00000166648472571898777830000016978540949312609460_);" d="M340.109,210.546
				c0,0-10.409-1.741-17.812,6.442c-7.403,8.183-26.106,42.861-26.106,42.861s-6.234-2.338-11.3-5.065s-15.196-11.689-15.196-11.689
				s-1.948-10.131-3.507-11.689l-4.676,2.727c0,0-12.858-4.286-11.3-2.727c1.559,1.559,3.117,4.676,4.286,7.014
				c1.169,2.338-0.39,1.948,1.559,3.507c1.948,1.559,5.065,7.403,5.065,7.403s26.886,35.847,38.965,32.73
				c12.079-3.117,45.199-51.433,45.199-51.433L340.109,210.546z"/>
			<g>
				
					<linearGradient id="SVGID_00000145756968660612955580000000598106043232839855_" gradientUnits="userSpaceOnUse" x1="192.9438" y1="142.7298" x2="329.8597" y2="403.3967">
					<stop  offset="0.0013" style="stop-color:#FFFFFF"/>
					<stop  offset="0.9448" style="stop-color:#ED9352"/>
				</linearGradient>
				<path style="fill:url(#SVGID_00000145756968660612955580000000598106043232839855_);" d="M383.861,296.476l-41.692-20.262
					c0,0-40.133-17.924-50.654-15.586c-10.52,2.338-27.665,14.027-27.665,14.027l-56.888,41.302c0,0-14.417,5.065-20.262,5.455
					c-5.845,0.39-21.43,0.779-15.975,5.065c5.455,4.286,14.807,4.676,21.431,3.896c6.624-0.779,11.689,4.676,16.755,2.338
					c5.065-2.338,2.922-8.377,9.546-9.936c6.624-1.559,40.913-10.131,52.602-19.093c11.689-8.962,12.858-12.079,18.313-12.079
					c5.455,0,58.435,55.394,96.626,27.697c0,0,9.747-7.825,6.824-21.268C389.901,284.592,383.861,296.476,383.861,296.476z"/>
				<g style="opacity:0.26;">
					
						<linearGradient id="SVGID_00000121992375976062467560000010031124238721844622_" gradientUnits="userSpaceOnUse" x1="240.6541" y1="227.0768" x2="308.1676" y2="355.6122">
						<stop  offset="0.0013" style="stop-color:#FFFFFF"/>
						<stop  offset="0.9448" style="stop-color:#ED9352"/>
					</linearGradient>
					<path style="fill:url(#SVGID_00000121992375976062467560000010031124238721844622_);" d="M332.356,316.224l-6.506-13.61
						c0,0-29.659-20.166-36.283-18.217c-5.679,1.67-28.809,24.25-47.578,31.885c11.112-3.499,23.069-7.997,29.07-12.598
						c11.689-8.962,12.858-12.079,18.313-12.079c2.901,0,19.239,15.662,39.646,26.166L332.356,316.224z"/>
					
						<linearGradient id="SVGID_00000178913979195553378760000006636554911304119471_" gradientUnits="userSpaceOnUse" x1="230.074" y1="316.0892" x2="232.4596" y2="320.631">
						<stop  offset="0.0013" style="stop-color:#FFFFFF"/>
						<stop  offset="0.9448" style="stop-color:#ED9352"/>
					</linearGradient>
					<path style="fill:url(#SVGID_00000178913979195553378760000006636554911304119471_);" d="M233.081,318.689
						c-3.278,0.327-4.545,0.843-4.39,1.474c1.904-0.516,3.972-1.093,6.141-1.721C234.24,318.547,233.655,318.631,233.081,318.689z"
						/>
				</g>
				
					<linearGradient id="SVGID_00000168829968408914097030000005897109017239337655_" gradientUnits="userSpaceOnUse" x1="283.9096" y1="168.0149" x2="385.2237" y2="360.9015">
					<stop  offset="0.0013" style="stop-color:#FFDE3E"/>
					<stop  offset="0.9448" style="stop-color:#ED9352"/>
				</linearGradient>
				<path style="fill:url(#SVGID_00000168829968408914097030000005897109017239337655_);" d="M392.823,298.034
					c-2.922-13.443-10.521-6.624-10.521-6.624l-40.133-15.196c0,0-8.435-4.042-14.806-6.624c2.776,7.217,8.962,27.665-9.741,41.692
					c18.836,10.611,46.757,26.885,68.377,8.02C385.999,319.302,395.745,311.477,392.823,298.034z"/>
				<g style="opacity:0.36;">
					
						<linearGradient id="SVGID_00000110444584014091811220000015225381531934117517_" gradientUnits="userSpaceOnUse" x1="315.6955" y1="232.6458" x2="377.0236" y2="349.4052">
						<stop  offset="0.0013" style="stop-color:#FFDE3E"/>
						<stop  offset="0.9448" style="stop-color:#ED9352"/>
					</linearGradient>
					<path style="fill:url(#SVGID_00000110444584014091811220000015225381531934117517_);" d="M383.472,317.127
						c-21.82,8.962-46.757-6.234-57.621-14.513c-1.957,3.034-4.631,5.97-8.229,8.668c18.836,10.611,46.757,26.885,68.377,8.02
						c0,0,6.277-5.047,7.242-13.992C392.433,312.451,383.472,317.127,383.472,317.127z"/>
				</g>
			</g>
			<g>
				
					<linearGradient id="SVGID_00000032646062114884491440000009198401157487951545_" gradientUnits="userSpaceOnUse" x1="340.4649" y1="199.1295" x2="357.3133" y2="268.2658">
					<stop  offset="0" style="stop-color:#FA8298"/>
					<stop  offset="0.1868" style="stop-color:#FA7E94"/>
					<stop  offset="0.3872" style="stop-color:#F9718A"/>
					<stop  offset="0.5939" style="stop-color:#F95B78"/>
					<stop  offset="0.8036" style="stop-color:#F83E60"/>
					<stop  offset="0.9505" style="stop-color:#F7244B"/>
				</linearGradient>
				<path style="fill:url(#SVGID_00000032646062114884491440000009198401157487951545_);" d="M392.823,298.034
					c-1.169-13.248-11.689-54.161-23.379-72.864c-11.689-18.703-32.341-24.548-32.341-24.548s1.169,3.507-5.065,10.131
					c-1.248,1.326-6.598,3.08-6.598,3.08s-4.312,30.819-1.195,38.612c3.117,7.793,10.131,7.014,10.131,7.014l6.971,14.989
					c3.855,5.795,10.1,12.513,22.252,13.066c11.639,0.529,24.342,13.348,29.924,19.4
					C393.986,302.153,392.823,298.034,392.823,298.034z"/>
				
					<linearGradient id="SVGID_00000096038792320095231020000014945277040639756197_" gradientUnits="userSpaceOnUse" x1="338.4508" y1="232.2675" x2="328.6651" y2="255.9706">
					<stop  offset="0" style="stop-color:#FA8298"/>
					<stop  offset="0.1868" style="stop-color:#FA7E94"/>
					<stop  offset="0.3872" style="stop-color:#F9718A"/>
					<stop  offset="0.5939" style="stop-color:#F95B78"/>
					<stop  offset="0.8036" style="stop-color:#F83E60"/>
					<stop  offset="0.9505" style="stop-color:#F7244B"/>
				</linearGradient>
				<path style="opacity:0.53;fill:url(#SVGID_00000096038792320095231020000014945277040639756197_);" d="M336.324,236.86
					c0,0,6.355-4.257,5.845-2.728c-4.676,14.027-10.728,25.05-10.728,25.05s-5.978-1.15-6.782-4.333
					C323.856,251.667,336.324,236.86,336.324,236.86z"/>
			</g>
			<g>
				
					<linearGradient id="SVGID_00000101791610580478505410000004493136927461090468_" gradientUnits="userSpaceOnUse" x1="342.1952" y1="282.2771" x2="308.1137" y2="274.5002">
					<stop  offset="0.0013" style="stop-color:#FFFFFF"/>
					<stop  offset="0.9448" style="stop-color:#ED9352"/>
				</linearGradient>
				<path style="opacity:0.26;fill:url(#SVGID_00000101791610580478505410000004493136927461090468_);" d="M281.546,266.012
					l-11.208-4.117c0,0,13.037,15.366,25.463,19.775c12.079,4.286,55.28,2.641,55.28,2.641l-9.607-8.921l-27.219-9.607
					L281.546,266.012z"/>
				<g>
					
						<linearGradient id="SVGID_00000007404929834490244240000016026277808857301121_" gradientUnits="userSpaceOnUse" x1="259.9595" y1="190.8835" x2="354.4181" y2="285.013">
						<stop  offset="0.0013" style="stop-color:#FFFFFF"/>
						<stop  offset="0.9448" style="stop-color:#ED9352"/>
					</linearGradient>
					<path style="fill:url(#SVGID_00000007404929834490244240000016026277808857301121_);" d="M340.248,211.084
						c-0.085-0.331-0.365-0.574-0.705-0.607c-2.267-0.223-10.87-0.535-17.245,6.511c-6.815,7.533-23.206,37.519-25.767,42.235
						c-0.196,0.361-0.627,0.517-1.01,0.368c-1.743-0.679-6.563-2.618-10.629-4.808c-3.171-1.708-8.327-5.858-11.74-8.724
						c-2.168-1.82-3.688-4.292-4.339-7.047c-0.636-2.694-1.523-5.956-2.344-7.245c-0.147-0.23-0.406-0.363-0.678-0.363h-1.875
						c-0.448,0-0.896-0.069-1.321-0.208c-6.693-2.181-11.726-4.534-13.748-5.533c-0.518-0.256-1.132,0.093-1.171,0.669
						c-0.086,1.26,0.153,3.326,2.148,5.072c1.659,1.451-1.169,3.507,1.948,6.624c1.848,1.848,0.779,4.676,2.727,6.234
						c1.787,1.43,5.869,4.499,6.532,4.997c0.061,0.046,0.113,0.098,0.159,0.158c1.487,1.967,27.17,35.667,38.897,32.641
						c11.517-2.972,42.16-47.032,44.989-51.128c0.134-0.194,0.176-0.436,0.117-0.664L340.248,211.084z"/>
					
						<linearGradient id="SVGID_00000043416833649250971050000009583458023941294213_" gradientUnits="userSpaceOnUse" x1="241.596" y1="209.3114" x2="336.0547" y2="303.441">
						<stop  offset="0.0013" style="stop-color:#FFFFFF"/>
						<stop  offset="0.9448" style="stop-color:#ED9352"/>
					</linearGradient>
					<path style="fill:url(#SVGID_00000043416833649250971050000009583458023941294213_);" d="M262.65,237.993l0.421-6.588
						c0,0,3.117-0.779,4.286-3.117c0,0,2.338-0.39,2.338,3.117c0,2.755-0.629,8.86-0.629,8.86l-4.812-2.005L262.65,237.993z"/>
					
						<linearGradient id="SVGID_00000101820358185416756790000017045538683307358651_" gradientUnits="userSpaceOnUse" x1="256.8615" y1="172.244" x2="344.2137" y2="338.5493">
						<stop  offset="0.0013" style="stop-color:#FFFFFF"/>
						<stop  offset="0.9448" style="stop-color:#ED9352"/>
					</linearGradient>
					<path style="opacity:0.11;fill:url(#SVGID_00000101820358185416756790000017045538683307358651_);" d="M300.087,282.059
						c7.239-1.868,22.035-19.97,32.73-34.177l-3.507-1.67c0,0-19.482,27.665-31.561,30.782
						c-12.079,3.117-36.627-27.665-36.627-27.665S288.009,285.176,300.087,282.059z"/>
					
						<linearGradient id="SVGID_00000055693950024258442260000012543674800457302426_" gradientUnits="userSpaceOnUse" x1="320.6858" y1="208.8517" x2="336.85" y2="275.1805">
						<stop  offset="0" style="stop-color:#FA8298"/>
						<stop  offset="0.1868" style="stop-color:#FA7E94"/>
						<stop  offset="0.3872" style="stop-color:#F9718A"/>
						<stop  offset="0.5939" style="stop-color:#F95B78"/>
						<stop  offset="0.8036" style="stop-color:#F83E60"/>
						<stop  offset="0.9505" style="stop-color:#F7244B"/>
					</linearGradient>
					<path style="fill:url(#SVGID_00000055693950024258442260000012543674800457302426_);" d="M340.109,210.546
						c0,0-10.409-1.741-17.812,6.442c-3.262,3.606-8.718,12.355-13.801,21.016c5.529,3.962,13.348,10.77,16.872,19.504
						c10.573-13.25,19.918-26.883,19.918-26.883L340.109,210.546z"/>
				</g>
			</g>
			
				<radialGradient id="SVGID_00000075878304809485836570000000571662021199335832_" cx="338.465" cy="202.5776" r="43.9348" gradientUnits="userSpaceOnUse">
				<stop  offset="0" style="stop-color:#003557"/>
				<stop  offset="0.4522" style="stop-color:#013256"/>
				<stop  offset="0.8302" style="stop-color:#062753"/>
				<stop  offset="1" style="stop-color:#092051"/>
			</radialGradient>
			<path style="fill:url(#SVGID_00000075878304809485836570000000571662021199335832_);" d="M318.011,180.751
				c0,0-1.169-2.728-4.286-0.779c-3.117,1.948-10.91,7.793-15.586,5.455c-4.676-2.338-12.079-11.689-1.948-19.093
				c10.131-7.403,17.144-1.948,22.21-2.727c5.065-0.779,13.248-3.507,19.872,2.727c6.624,6.234,6.624,16.365,16.755,19.872
				s27.275,10.91,29.223,24.937c1.948,14.027-1.169,23.379,1.559,27.665c0,0-20.355,9.269-31.561-0.39s-10.009-26.467-19.872-26.496
				C324.513,211.894,318.79,193.999,318.011,180.751z"/>
		</g>
	</g>
	<g>
		<g>
			
				<linearGradient id="SVGID_00000054249291706389839860000002891167183373509250_" gradientUnits="userSpaceOnUse" x1="363.0935" y1="385.5477" x2="364.0563" y2="257.5057">
				<stop  offset="0" style="stop-color:#437C57"/>
				<stop  offset="1" style="stop-color:#69A96F"/>
			</linearGradient>
			<path style="fill:url(#SVGID_00000054249291706389839860000002891167183373509250_);" d="M303.228,369.639
				c0,0-10.258-26.499-16.241-31.628c0,0,13.677,15.387,17.951,23.08c0,0-7.693-34.193-15.387-41.031l17.096,33.338l-11.967-47.015
				l18.806,49.579l-5.984-31.628l11.113,29.918c0,0,3.419-24.789-5.129-37.612c0,0,11.967,22.225,12.822,38.466
				c0,0-1.71-29.918-4.274-35.902l9.403,30.773l-1.71-47.015l7.693,44.45l1.71-29.064l1.71,11.967l4.274-23.935l-2.564,40.176
				l5.129-23.935v23.08c0,0,5.129-41.886,14.532-52.144c0,0-9.403,43.596-8.548,63.256c0,0,5.984-19.661,5.984-31.628
				c0,0,2.346,13.293,1.802,24.922c-0.025,0.53-0.055,1.056-0.093,1.577c-0.855,11.967,5.984-40.176,17.096-52.998
				c0,0-7.693,23.935-6.839,37.612c0,0,4.274-11.967,10.258-17.951c0,0-8.548,20.516-7.693,29.918l5.129-10.258l-0.855,14.532
				l10.258-34.193L387,338.866l3.419-5.129L387,352.543l9.403-34.193l0.855,14.532l7.693-14.532c0,0-9.403,23.935-7.693,32.483
				c0,0,7.693-29.064,15.387-39.321c0,0-5.984,13.677-5.984,21.37c0,0,2.564-9.403,5.129-12.822l-2.564,17.951l11.113-25.644
				l-10.258,43.595l7.693-19.661v11.967l12.822-33.338l-11.112,41.886l9.403-23.08l-0.855,19.661c0,0,2.564-17.096,11.967-26.499
				c0,0-11.967,29.919-11.967,42.741H303.228z"/>
			
				<linearGradient id="SVGID_00000031912155757220029410000013325941829370531236_" gradientUnits="userSpaceOnUse" x1="363.0935" y1="385.5477" x2="364.0563" y2="257.5057">
				<stop  offset="0" style="stop-color:#437C57"/>
				<stop  offset="1" style="stop-color:#69A96F"/>
			</linearGradient>
			<path style="opacity:0.15;fill:url(#SVGID_00000031912155757220029410000013325941829370531236_);" d="M303.228,369.639
				c0,0-10.258-26.499-16.241-31.628c0,0,13.677,15.387,17.951,23.08c0,0-7.693-34.193-15.387-41.031l17.096,33.338l-11.967-47.015
				l18.806,49.579l-5.984-31.628l11.113,29.918c0,0,3.419-24.789-5.129-37.612c0,0,11.967,22.225,12.822,38.466
				c0,0-1.71-29.918-4.274-35.902l9.403,30.773l-1.71-47.015l7.693,44.45l1.71-29.064l1.71,11.967l4.274-23.935l-2.564,40.176
				l5.129-23.935v23.08c0,0,5.129-41.886,14.532-52.144c0,0-9.403,43.596-8.548,63.256c0,0,5.984-19.661,5.984-31.628
				c0,0,2.346,13.293,1.802,24.922c-0.025,0.53-0.055,1.056-0.093,1.577c-0.855,11.967,5.984-40.176,17.096-52.998
				c0,0-7.693,23.935-6.839,37.612c0,0,4.274-11.967,10.258-17.951c0,0-8.548,20.516-7.693,29.918l5.129-10.258l-0.855,14.532
				l10.258-34.193L387,338.866l3.419-5.129L387,352.543l9.403-34.193l0.855,14.532l7.693-14.532c0,0-9.403,23.935-7.693,32.483
				c0,0,7.693-29.064,15.387-39.321c0,0-5.984,13.677-5.984,21.37c0,0,2.564-9.403,5.129-12.822l-2.564,17.951l11.113-25.644
				l-10.258,43.595l7.693-19.661v11.967l12.822-33.338l-11.112,41.886l9.403-23.08l-0.855,19.661c0,0,2.564-17.096,11.967-26.499
				c0,0-11.967,29.919-11.967,42.741H303.228z"/>
		</g>
		<g>
			
				<linearGradient id="SVGID_00000016056861817707479780000012484190180797482880_" gradientUnits="userSpaceOnUse" x1="384.1071" y1="229.631" x2="376.7407" y2="392.2135">
				<stop  offset="0" style="stop-color:#437C57"/>
				<stop  offset="1" style="stop-color:#69A96F"/>
			</linearGradient>
			<path style="fill:url(#SVGID_00000016056861817707479780000012484190180797482880_);" d="M330.091,372.204
				c0,0-8.328-21.513-13.185-25.677c0,0,11.103,12.491,14.573,18.737c0,0-6.246-27.759-12.491-33.31l13.879,27.065l-9.715-38.168
				l15.267,40.25l-4.858-25.677l9.022,24.289c0,0,2.776-20.125-4.164-30.534c0,0,9.715,18.043,10.409,31.228
				c0,0-1.388-24.289-3.47-29.146l7.634,24.983l-1.388-38.168l6.246,36.086l1.388-23.595l1.388,9.715l3.47-19.431l-2.082,32.616
				l4.164-19.431v18.737c0,0,4.164-34.004,11.797-42.332c0,0-7.634,35.392-6.94,51.353c0,0,4.858-15.961,4.858-25.677
				c0,0,1.904,10.792,1.463,20.232c-0.02,0.43-0.045,0.857-0.075,1.28c-0.694,9.715,4.858-32.616,13.879-43.026
				c0,0-6.246,19.431-5.552,30.534c0,0,3.47-9.715,8.327-14.573c0,0-6.94,16.655-6.246,24.289l4.164-8.327l-0.694,11.797
				l8.327-27.758l-1.388,16.655l2.776-4.164l-2.776,15.267l7.634-27.758l0.694,11.797l6.246-11.797c0,0-7.634,19.431-6.246,26.37
				c0,0,6.246-23.595,12.491-31.922c0,0-4.858,11.103-4.858,17.349c0,0,2.082-7.633,4.164-10.409l-2.082,14.573l9.021-20.819
				l-8.328,35.392l6.246-15.961v9.715l10.409-27.064l-9.022,34.004l7.634-18.737l-0.694,15.961c0,0,2.082-13.879,9.715-21.513
				c0,0-9.715,24.289-9.715,34.698H330.091z"/>
			
				<linearGradient id="SVGID_00000140693638617761827990000006169772848871104440_" gradientUnits="userSpaceOnUse" x1="342.4532" y1="227.7436" x2="335.0868" y2="390.3259">
				<stop  offset="0" style="stop-color:#437C57"/>
				<stop  offset="1" style="stop-color:#69A96F"/>
			</linearGradient>
			<path style="fill:url(#SVGID_00000140693638617761827990000006169772848871104440_);" d="M302.316,369.639
				c0,0-5.902-15.248-9.346-18.199c0,0,7.87,8.854,10.329,13.281c0,0-4.427-19.675-8.854-23.61l9.837,19.183l-6.886-27.053
				l10.821,28.529l-3.443-18.199l6.394,17.216c0,0,1.968-14.264-2.951-21.642c0,0,6.886,12.789,7.378,22.134
				c0,0-0.984-17.216-2.459-20.659l5.411,17.707l-0.984-27.053l4.427,25.578l0.984-16.724l0.984,6.886l2.459-13.772l-1.476,23.118
				l2.951-13.772v13.281c0,0,2.951-24.102,8.362-30.004c0,0-5.411,25.086-4.919,36.399c0,0,3.443-11.313,3.443-18.199
				c0,0,1.35,7.649,1.037,14.34c-0.014,0.305-0.032,0.608-0.053,0.908c-0.492,6.886,3.443-23.118,9.837-30.496
				c0,0-4.427,13.772-3.935,21.642c0,0,2.459-6.886,5.902-10.329c0,0-4.919,11.805-4.427,17.216l2.951-5.903l-0.492,8.362
				l5.902-19.675l-0.984,11.805l1.967-2.951l-1.967,10.821l5.411-19.675l0.492,8.362l4.427-8.362c0,0-5.411,13.772-4.427,18.691
				c0,0,4.427-16.724,8.854-22.626c0,0-3.443,7.87-3.443,12.297c0,0,1.476-5.411,2.951-7.378l-1.476,10.329l6.394-14.756
				l-5.902,25.086l4.427-11.313v6.886l7.378-19.183l-6.394,24.102l5.411-13.281l-0.492,11.313c0,0,1.476-9.838,6.886-15.248
				c0,0-6.886,17.216-6.886,24.594H302.316z"/>
		</g>
	</g>
	<g>
		<g>
			
				<linearGradient id="SVGID_00000095303979526085435290000014269388526264258444_" gradientUnits="userSpaceOnUse" x1="106.9345" y1="372.3137" x2="107.6468" y2="277.5806">
				<stop  offset="0" style="stop-color:#437C57"/>
				<stop  offset="1" style="stop-color:#69A96F"/>
			</linearGradient>
			<path style="fill:url(#SVGID_00000095303979526085435290000014269388526264258444_);" d="M56.536,360.498
				c0,0-8.629-19.59-13.662-23.382c0,0,11.505,11.375,15.1,17.062c0,0-6.472-25.277-12.943-30.333l14.381,24.645l-10.067-34.757
				l15.819,36.652l-5.034-23.382l9.348,22.118c0,0,2.876-18.326-4.314-27.805c0,0,10.067,16.43,10.786,28.437
				c0,0-1.438-22.118-3.595-26.541l7.91,22.75l-1.438-34.756l6.472,32.861l1.438-21.486l1.438,8.847l3.595-17.694l-2.157,29.701
				l4.314-17.694v17.062c0,0,4.314-30.965,12.224-38.548c0,0-7.91,32.229-7.191,46.763c0,0,5.034-14.534,5.034-23.382
				c0,0,1.973,9.827,1.516,18.424c-0.021,0.392-0.047,0.781-0.078,1.166c-0.719,8.847,5.033-29.701,14.381-39.18
				c0,0-6.471,17.694-5.752,27.805c0,0,3.595-8.847,8.629-13.271c0,0-7.191,15.167-6.472,22.118l4.314-7.583l-0.719,10.743
				l8.629-25.277l-1.438,15.167l2.876-3.792l-2.876,13.902l7.91-25.277l0.719,10.743l6.471-10.743c0,0-7.91,17.694-6.471,24.014
				c0,0,6.471-21.486,12.943-29.069c0,0-5.034,10.111-5.034,15.798c0,0,2.157-6.951,4.314-9.479l-2.157,13.271l9.348-18.958
				l-8.629,32.229l6.471-14.535v8.847l10.786-24.646l-9.348,30.965l7.91-17.062l-0.719,14.534c0,0,2.157-12.639,10.067-19.59
				c0,0-10.067,22.118-10.067,31.597H56.536z"/>
			
				<linearGradient id="SVGID_00000092441343053587611850000013223278407206948012_" gradientUnits="userSpaceOnUse" x1="106.9345" y1="372.3137" x2="107.6468" y2="277.5806">
				<stop  offset="0" style="stop-color:#437C57"/>
				<stop  offset="1" style="stop-color:#69A96F"/>
			</linearGradient>
			<path style="opacity:0.15;fill:url(#SVGID_00000092441343053587611850000013223278407206948012_);" d="M56.536,360.498
				c0,0-8.629-19.59-13.662-23.382c0,0,11.505,11.375,15.1,17.062c0,0-6.472-25.277-12.943-30.333l14.381,24.645l-10.067-34.757
				l15.819,36.652l-5.034-23.382l9.348,22.118c0,0,2.876-18.326-4.314-27.805c0,0,10.067,16.43,10.786,28.437
				c0,0-1.438-22.118-3.595-26.541l7.91,22.75l-1.438-34.756l6.472,32.861l1.438-21.486l1.438,8.847l3.595-17.694l-2.157,29.701
				l4.314-17.694v17.062c0,0,4.314-30.965,12.224-38.548c0,0-7.91,32.229-7.191,46.763c0,0,5.034-14.534,5.034-23.382
				c0,0,1.973,9.827,1.516,18.424c-0.021,0.392-0.047,0.781-0.078,1.166c-0.719,8.847,5.033-29.701,14.381-39.18
				c0,0-6.471,17.694-5.752,27.805c0,0,3.595-8.847,8.629-13.271c0,0-7.191,15.167-6.472,22.118l4.314-7.583l-0.719,10.743
				l8.629-25.277l-1.438,15.167l2.876-3.792l-2.876,13.902l7.91-25.277l0.719,10.743l6.471-10.743c0,0-7.91,17.694-6.471,24.014
				c0,0,6.471-21.486,12.943-29.069c0,0-5.034,10.111-5.034,15.798c0,0,2.157-6.951,4.314-9.479l-2.157,13.271l9.348-18.958
				l-8.629,32.229l6.471-14.535v8.847l10.786-24.646l-9.348,30.965l7.91-17.062l-0.719,14.534c0,0,2.157-12.639,10.067-19.59
				c0,0-10.067,22.118-10.067,31.597H56.536z"/>
		</g>
		<g>
			
				<linearGradient id="SVGID_00000008135828885333872420000005326826808503643038_" gradientUnits="userSpaceOnUse" x1="126.9778" y1="192.409" x2="118.2659" y2="384.6899">
				<stop  offset="0" style="stop-color:#437C57"/>
				<stop  offset="1" style="stop-color:#69A96F"/>
			</linearGradient>
			<path style="fill:url(#SVGID_00000008135828885333872420000005326826808503643038_);" d="M79.133,362.394
				c0,0-7.005-15.904-11.091-18.982c0,0,9.34,9.234,12.259,13.852c0,0-5.254-20.521-10.508-24.625l11.675,20.008l-8.173-28.216
				l12.843,29.755l-4.086-18.982l7.589,17.956c0,0,2.335-14.878-3.502-22.573c0,0,8.173,13.339,8.756,23.086
				c0,0-1.168-17.956-2.919-21.547l6.421,18.469l-1.167-28.216l5.254,26.677l1.168-17.443l1.168,7.182l2.919-14.365l-1.751,24.112
				l3.503-14.365v13.852c0,0,3.503-25.138,9.924-31.294c0,0-6.421,26.164-5.837,37.964c0,0,4.086-11.799,4.086-18.982
				c0,0,1.602,7.978,1.231,14.957c-0.017,0.318-0.038,0.634-0.063,0.947c-0.584,7.182,4.086-24.112,11.675-31.807
				c0,0-5.254,14.365-4.67,22.573c0,0,2.919-7.182,7.005-10.773c0,0-5.838,12.313-5.254,17.956l3.503-6.156l-0.584,8.721
				l7.005-20.521l-1.167,12.313l2.335-3.078l-2.335,11.286l6.421-20.521l0.584,8.721l5.254-8.721c0,0-6.421,14.365-5.254,19.495
				c0,0,5.254-17.443,10.508-23.599c0,0-4.086,8.208-4.086,12.826c0,0,1.751-5.643,3.503-7.695l-1.751,10.773l7.589-15.391
				l-7.005,26.164l5.254-11.8v7.182l8.756-20.008l-7.589,25.138l6.421-13.852l-0.584,11.799c0,0,1.751-10.26,8.173-15.904
				c0,0-8.173,17.956-8.173,25.651H79.133z"/>
			
				<linearGradient id="SVGID_00000072268986188442550480000011320684855876057995_" gradientUnits="userSpaceOnUse" x1="91.9103" y1="190.8205" x2="83.1984" y2="383.1011">
				<stop  offset="0" style="stop-color:#437C57"/>
				<stop  offset="1" style="stop-color:#69A96F"/>
			</linearGradient>
			<path style="fill:url(#SVGID_00000072268986188442550480000011320684855876057995_);" d="M55.769,360.498
				c0,0-4.965-11.272-7.862-13.454c0,0,6.62,6.545,8.689,9.818c0,0-3.724-14.545-7.448-17.454l8.275,14.181l-5.793-20l9.103,21.09
				l-2.896-13.454l5.379,12.727c0,0,1.655-10.545-2.483-16c0,0,5.793,9.454,6.206,16.363c0,0-0.827-12.727-2.069-15.272
				l4.551,13.091l-0.827-20l3.724,18.909l0.828-12.363l0.827,5.091l2.069-10.182l-1.241,17.091l2.483-10.182v9.818
				c0,0,2.483-17.818,7.034-22.181c0,0-4.551,18.545-4.138,26.908c0,0,2.896-8.363,2.896-13.454c0,0,1.135,5.655,0.872,10.602
				c-0.012,0.225-0.027,0.449-0.045,0.671c-0.414,5.091,2.896-17.09,8.275-22.545c0,0-3.724,10.182-3.31,16
				c0,0,2.069-5.091,4.965-7.636c0,0-4.138,8.727-3.724,12.727l2.483-4.364l-0.414,6.182l4.965-14.545l-0.827,8.727l1.655-2.182
				l-1.655,8l4.551-14.545l0.414,6.182l3.724-6.182c0,0-4.551,10.182-3.724,13.818c0,0,3.724-12.363,7.448-16.727
				c0,0-2.896,5.818-2.896,9.091c0,0,1.241-4,2.483-5.454l-1.241,7.636l5.379-10.909l-4.965,18.545l3.724-8.363v5.091l6.206-14.181
				l-5.379,17.818l4.551-9.818l-0.414,8.363c0,0,1.241-7.272,5.793-11.272c0,0-5.793,12.727-5.793,18.181H55.769z"/>
		</g>
	</g>
	<g>
		<g>
			
				<linearGradient id="SVGID_00000037659936846377662170000005276487729525867137_" gradientUnits="userSpaceOnUse" x1="200.0666" y1="382.3082" x2="200.7794" y2="287.5078">
				<stop  offset="0" style="stop-color:#437C57"/>
				<stop  offset="1" style="stop-color:#69A96F"/>
			</linearGradient>
			<path style="fill:url(#SVGID_00000037659936846377662170000005276487729525867137_);" d="M144.202,370.443
				c0,0-9.559-19.59-15.135-23.382c0,0,12.746,11.375,16.729,17.062c0,0-7.169-25.277-14.339-30.333l15.932,24.646l-11.152-34.757
				l17.525,36.652l-5.576-23.382l10.356,22.118c0,0,3.186-18.326-4.78-27.805c0,0,11.152,16.43,11.949,28.437
				c0,0-1.593-22.118-3.983-26.541l8.763,22.75l-1.593-34.757l7.169,32.861l1.593-21.486l1.593,8.847l3.983-17.694l-2.39,29.701
				l4.78-17.694v17.062c0,0,4.78-30.965,13.542-38.548c0,0-8.763,32.229-7.966,46.763c0,0,5.576-14.535,5.576-23.382
				c0,0,2.186,9.827,1.68,18.424c-0.023,0.392-0.052,0.781-0.086,1.166c-0.797,8.847,5.576-29.701,15.932-39.18
				c0,0-7.169,17.694-6.373,27.805c0,0,3.983-8.847,9.559-13.271c0,0-7.966,15.167-7.169,22.118l4.78-7.583l-0.797,10.743
				l9.559-25.277l-1.593,15.167l3.186-3.792l-3.186,13.903l8.763-25.277l0.797,10.743l7.169-10.743c0,0-8.763,17.694-7.169,24.014
				c0,0,7.169-21.486,14.339-29.069c0,0-5.576,10.111-5.576,15.798c0,0,2.39-6.951,4.78-9.479l-2.39,13.271l10.356-18.958
				l-9.559,32.229l7.169-14.535v8.847l11.949-24.646l-10.356,30.965l8.763-17.062l-0.797,14.535c0,0,2.39-12.639,11.152-19.59
				c0,0-11.152,22.118-11.152,31.597H144.202z"/>
			
				<linearGradient id="SVGID_00000112632196192942632940000008194164729084274095_" gradientUnits="userSpaceOnUse" x1="200.0666" y1="382.3082" x2="200.7794" y2="287.5078">
				<stop  offset="0" style="stop-color:#437C57"/>
				<stop  offset="1" style="stop-color:#69A96F"/>
			</linearGradient>
			<path style="opacity:0.15;fill:url(#SVGID_00000112632196192942632940000008194164729084274095_);" d="M144.202,370.443
				c0,0-9.559-19.59-15.135-23.382c0,0,12.746,11.375,16.729,17.062c0,0-7.169-25.277-14.339-30.333l15.932,24.646l-11.152-34.757
				l17.525,36.652l-5.576-23.382l10.356,22.118c0,0,3.186-18.326-4.78-27.805c0,0,11.152,16.43,11.949,28.437
				c0,0-1.593-22.118-3.983-26.541l8.763,22.75l-1.593-34.757l7.169,32.861l1.593-21.486l1.593,8.847l3.983-17.694l-2.39,29.701
				l4.78-17.694v17.062c0,0,4.78-30.965,13.542-38.548c0,0-8.763,32.229-7.966,46.763c0,0,5.576-14.535,5.576-23.382
				c0,0,2.186,9.827,1.68,18.424c-0.023,0.392-0.052,0.781-0.086,1.166c-0.797,8.847,5.576-29.701,15.932-39.18
				c0,0-7.169,17.694-6.373,27.805c0,0,3.983-8.847,9.559-13.271c0,0-7.966,15.167-7.169,22.118l4.78-7.583l-0.797,10.743
				l9.559-25.277l-1.593,15.167l3.186-3.792l-3.186,13.903l8.763-25.277l0.797,10.743l7.169-10.743c0,0-8.763,17.694-7.169,24.014
				c0,0,7.169-21.486,14.339-29.069c0,0-5.576,10.111-5.576,15.798c0,0,2.39-6.951,4.78-9.479l-2.39,13.271l10.356-18.958
				l-9.559,32.229l7.169-14.535v8.847l11.949-24.646l-10.356,30.965l8.763-17.062l-0.797,14.535c0,0,2.39-12.639,11.152-19.59
				c0,0-11.152,22.118-11.152,31.597H144.202z"/>
		</g>
		<g>
			
				<linearGradient id="SVGID_00000137832923090145269590000004241991322381998773_" gradientUnits="userSpaceOnUse" x1="222.1668" y1="188.0428" x2="213.4188" y2="381.1201">
				<stop  offset="0" style="stop-color:#437C57"/>
				<stop  offset="1" style="stop-color:#69A96F"/>
			</linearGradient>
			<path style="fill:url(#SVGID_00000137832923090145269590000004241991322381998773_);" d="M169.235,372.339
				c0,0-7.76-15.904-12.287-18.982c0,0,10.347,9.234,13.581,13.852c0,0-5.82-20.521-11.641-24.625l12.934,20.008l-9.054-28.216
				l14.228,29.755l-4.527-18.982l8.407,17.956c0,0,2.587-14.878-3.88-22.573c0,0,9.054,13.339,9.701,23.086
				c0,0-1.293-17.956-3.234-21.547l7.114,18.469l-1.293-28.216l5.82,26.677l1.294-17.443l1.293,7.182l3.234-14.365l-1.94,24.112
				l3.88-14.365v13.852c0,0,3.88-25.138,10.994-31.294c0,0-7.114,26.164-6.467,37.964c0,0,4.527-11.799,4.527-18.982
				c0,0,1.775,7.978,1.364,14.957c-0.019,0.318-0.042,0.634-0.07,0.947c-0.647,7.182,4.527-24.112,12.934-31.807
				c0,0-5.82,14.365-5.174,22.573c0,0,3.234-7.182,7.76-10.773c0,0-6.467,12.313-5.82,17.956l3.88-6.156l-0.647,8.721l7.76-20.521
				l-1.293,12.313l2.587-3.078l-2.587,11.286l7.114-20.521l0.647,8.721l5.82-8.721c0,0-7.114,14.365-5.82,19.495
				c0,0,5.82-17.443,11.641-23.599c0,0-4.527,8.208-4.527,12.826c0,0,1.94-5.643,3.88-7.695l-1.94,10.773l8.407-15.391l-7.76,26.164
				l5.82-11.8v7.182l9.701-20.008l-8.407,25.138l7.114-13.852l-0.647,11.799c0,0,1.94-10.26,9.054-15.904
				c0,0-9.054,17.956-9.054,25.651H169.235z"/>
			
				<linearGradient id="SVGID_00000181048882755588594660000000979445741751069597_" gradientUnits="userSpaceOnUse" x1="183.2901" y1="186.3988" x2="174.542" y2="379.4763">
				<stop  offset="0" style="stop-color:#437C57"/>
				<stop  offset="1" style="stop-color:#69A96F"/>
			</linearGradient>
			<path style="fill:url(#SVGID_00000181048882755588594660000000979445741751069597_);" d="M143.352,370.443
				c0,0-5.501-11.273-8.709-13.454c0,0,7.334,6.545,9.626,9.818c0,0-4.125-14.545-8.251-17.454l9.168,14.181l-6.417-20l10.084,21.09
				l-3.209-13.454l5.959,12.727c0,0,1.834-10.545-2.75-16c0,0,6.417,9.454,6.876,16.363c0,0-0.917-12.727-2.292-15.272l5.042,13.091
				l-0.917-20l4.125,18.909l0.917-12.363l0.917,5.091l2.292-10.182l-1.375,17.091l2.75-10.182v9.818c0,0,2.75-17.818,7.792-22.181
				c0,0-5.042,18.545-4.584,26.909c0,0,3.209-8.363,3.209-13.454c0,0,1.258,5.655,0.967,10.602c-0.013,0.225-0.03,0.449-0.05,0.671
				c-0.458,5.091,3.209-17.091,9.168-22.545c0,0-4.125,10.182-3.667,16c0,0,2.292-5.091,5.5-7.636c0,0-4.584,8.727-4.125,12.727
				l2.75-4.363l-0.458,6.182l5.501-14.545l-0.917,8.727l1.833-2.182l-1.833,8l5.042-14.545l0.458,6.182l4.125-6.182
				c0,0-5.042,10.182-4.125,13.818c0,0,4.125-12.363,8.251-16.727c0,0-3.209,5.818-3.209,9.091c0,0,1.375-4,2.75-5.454l-1.375,7.636
				l5.959-10.909l-5.501,18.545l4.125-8.363v5.091l6.876-14.182l-5.959,17.818l5.042-9.818l-0.458,8.363
				c0,0,1.375-7.273,6.417-11.272c0,0-6.417,12.727-6.417,18.181H143.352z"/>
		</g>
	</g>
	<g>
		
			<linearGradient id="SVGID_00000051370553284201565680000002913170011374384314_" gradientUnits="userSpaceOnUse" x1="161.345" y1="300.2891" x2="160.7588" y2="313.2266">
			<stop  offset="0" style="stop-color:#479C91"/>
			<stop  offset="1" style="stop-color:#004C37;stop-opacity:0"/>
		</linearGradient>
		
			<ellipse style="fill:url(#SVGID_00000051370553284201565680000002913170011374384314_);" cx="161.099" cy="305.717" rx="44.201" ry="3.315"/>
		<g>
			
				<linearGradient id="SVGID_00000167369520883817892340000009492432126278339760_" gradientUnits="userSpaceOnUse" x1="154.9747" y1="306.9928" x2="154.9747" y2="265.7125">
				<stop  offset="0.0013" style="stop-color:#FFDE3E"/>
				<stop  offset="0.0047" style="stop-color:#FFDE3E"/>
				<stop  offset="0.784" style="stop-color:#ED9352"/>
			</linearGradient>
			<polygon style="fill:url(#SVGID_00000167369520883817892340000009492432126278339760_);" points="194.338,284 198.629,268.268 
				117.108,268.268 111.321,269.626 125.841,290.767 			"/>
			
				<linearGradient id="SVGID_00000150820971837166452580000002548984063101819794_" gradientUnits="userSpaceOnUse" x1="197.0186" y1="250.6983" x2="191.2268" y2="295.1473">
				<stop  offset="0.0013" style="stop-color:#FFDE3E"/>
				<stop  offset="0.0047" style="stop-color:#FFDE3E"/>
				<stop  offset="0.784" style="stop-color:#ED9352"/>
			</linearGradient>
			<polygon style="fill:url(#SVGID_00000150820971837166452580000002548984063101819794_);" points="191.478,304.023 
				185.833,306.613 193.369,270.008 198.629,268.268 			"/>
			
				<linearGradient id="SVGID_00000034792885771510666430000011669973179697110957_" gradientUnits="userSpaceOnUse" x1="197.0186" y1="250.6983" x2="191.2268" y2="295.1473">
				<stop  offset="0.0013" style="stop-color:#FFDE3E;stop-opacity:0"/>
				<stop  offset="0.0047" style="stop-color:#FFDE3E;stop-opacity:0.0043"/>
				<stop  offset="0.784" style="stop-color:#ED9352"/>
			</linearGradient>
			<polygon style="opacity:0.47;fill:url(#SVGID_00000034792885771510666430000011669973179697110957_);" points="191.478,304.023 
				185.833,306.613 193.369,270.008 198.629,268.268 			"/>
			
				<radialGradient id="SVGID_00000096778702127855109920000006897801899322049726_" cx="191.0504" cy="275.3792" r="0" gradientUnits="userSpaceOnUse">
				<stop  offset="0" style="stop-color:#003557"/>
				<stop  offset="0.4522" style="stop-color:#013256"/>
				<stop  offset="0.8302" style="stop-color:#062753"/>
				<stop  offset="1" style="stop-color:#092051"/>
			</radialGradient>
			<path style="fill:url(#SVGID_00000096778702127855109920000006897801899322049726_);" d="M191.05,275.379"/>
			
				<linearGradient id="SVGID_00000043433971764231419520000014724760108882902933_" gradientUnits="userSpaceOnUse" x1="155.686" y1="245.8605" x2="156.058" y2="278.4728">
				<stop  offset="0.0013" style="stop-color:#FFDE3E"/>
				<stop  offset="0.0047" style="stop-color:#FFDE3E"/>
				<stop  offset="0.784" style="stop-color:#ED9352"/>
			</linearGradient>
			
				<path style="fill:none;stroke:url(#SVGID_00000043433971764231419520000014724760108882902933_);stroke-width:4.1098;stroke-miterlimit:10;" d="
				M175.007,276.201h-38.634c-3.279,0-6.036-2.458-6.412-5.715l-1.807-22.231h55.071l-1.806,22.231
				C181.043,273.743,178.285,276.201,175.007,276.201z"/>
			
				<linearGradient id="SVGID_00000098211602106508653140000004379901491457952150_" gradientUnits="userSpaceOnUse" x1="152.3635" y1="228.7728" x2="153.2988" y2="310.7733">
				<stop  offset="0.0013" style="stop-color:#FFDE3E"/>
				<stop  offset="0.0047" style="stop-color:#FFDE3E"/>
				<stop  offset="0.784" style="stop-color:#ED9352"/>
			</linearGradient>
			<polygon style="fill:url(#SVGID_00000098211602106508653140000004379901491457952150_);" points="185.833,306.613 
				119.826,306.613 111.321,269.626 194.338,269.626 			"/>
			
				<linearGradient id="SVGID_00000021087562938376119050000000818679930607079853_" gradientUnits="userSpaceOnUse" x1="153.6873" y1="280.5315" x2="169.5885" y2="316.0755">
				<stop  offset="0.0013" style="stop-color:#FFDE3E;stop-opacity:0"/>
				<stop  offset="0.0047" style="stop-color:#FFDE3E;stop-opacity:0.0043"/>
				<stop  offset="0.784" style="stop-color:#ED9352"/>
			</linearGradient>
			<path style="opacity:0.47;fill:url(#SVGID_00000021087562938376119050000000818679930607079853_);" d="M185.429,269.626
				L185.429,269.626c-4.093,17.799-19.936,30.412-38.199,30.412h-28.916l1.512,6.576h66.008l8.505-36.988H185.429z"/>
			<g style="opacity:0.8;">
				<g>
					<g style="opacity:0.91;">
						
							<linearGradient id="SVGID_00000161603266359348458550000016513256747871764355_" gradientUnits="userSpaceOnUse" x1="116.2526" y1="277.0231" x2="190.2284" y2="277.0231">
							<stop  offset="0.0013" style="stop-color:#FFDE3E"/>
							<stop  offset="0.0047" style="stop-color:#FFDE3E"/>
							<stop  offset="0.784" style="stop-color:#ED9352"/>
						</linearGradient>
						<path style="fill:url(#SVGID_00000161603266359348458550000016513256747871764355_);" d="M116.253,277.023
							c6.165-0.169,12.329-0.249,18.494-0.315l18.494-0.096l18.494,0.094c6.165,0.066,12.329,0.145,18.494,0.316
							c-6.165,0.171-12.329,0.25-18.494,0.316l-18.494,0.094l-18.494-0.096C128.582,277.272,122.417,277.193,116.253,277.023z"/>
					</g>
					<g style="opacity:0.91;">
						
							<linearGradient id="SVGID_00000128481816173498150970000013605447807484843651_" gradientUnits="userSpaceOnUse" x1="117.8965" y1="283.5988" x2="187.7626" y2="283.5988">
							<stop  offset="0.0013" style="stop-color:#FFDE3E"/>
							<stop  offset="0.0047" style="stop-color:#FFDE3E"/>
							<stop  offset="0.784" style="stop-color:#ED9352"/>
						</linearGradient>
						<path style="fill:url(#SVGID_00000128481816173498150970000013605447807484843651_);" d="M117.896,283.599
							c5.822-0.169,11.644-0.249,17.467-0.315l17.466-0.096l17.467,0.094c5.822,0.066,11.644,0.145,17.466,0.316
							c-5.822,0.171-11.644,0.25-17.466,0.316l-17.467,0.094l-17.466-0.096C129.541,283.848,123.719,283.768,117.896,283.599z"/>
					</g>
					<g style="opacity:0.91;">
						
							<linearGradient id="SVGID_00000125564046280213825290000013672304278987465148_" gradientUnits="userSpaceOnUse" x1="121.1843" y1="290.1744" x2="185.2967" y2="290.1744">
							<stop  offset="0.0013" style="stop-color:#FFDE3E"/>
							<stop  offset="0.0047" style="stop-color:#FFDE3E"/>
							<stop  offset="0.784" style="stop-color:#ED9352"/>
						</linearGradient>
						<path style="fill:url(#SVGID_00000125564046280213825290000013672304278987465148_);" d="M121.184,290.174
							c5.343-0.169,10.685-0.249,16.028-0.315l16.028-0.096l16.028,0.094c5.343,0.066,10.685,0.145,16.028,0.316
							c-5.343,0.171-10.685,0.25-16.028,0.316l-16.028,0.094l-16.028-0.096C131.87,290.423,126.527,290.344,121.184,290.174z"/>
					</g>
					<g style="opacity:0.91;">
						
							<linearGradient id="SVGID_00000029758132736706983840000001057813553786295473_" gradientUnits="userSpaceOnUse" x1="122.0062" y1="296.75" x2="182.8308" y2="296.75">
							<stop  offset="0.0013" style="stop-color:#FFDE3E"/>
							<stop  offset="0.0047" style="stop-color:#FFDE3E"/>
							<stop  offset="0.784" style="stop-color:#ED9352"/>
						</linearGradient>
						<path style="fill:url(#SVGID_00000029758132736706983840000001057813553786295473_);" d="M122.006,296.75
							c5.069-0.169,10.137-0.249,15.206-0.315l15.206-0.096l15.206,0.094c5.069,0.066,10.137,0.145,15.206,0.316
							c-5.069,0.171-10.137,0.25-15.206,0.316l-15.206,0.094l-15.206-0.096C132.144,296.999,127.075,296.919,122.006,296.75z"/>
					</g>
					<g style="opacity:0.91;">
						
							<linearGradient id="SVGID_00000083052627990581773380000001532953324712507548_" gradientUnits="userSpaceOnUse" x1="128.5819" y1="303.3257" x2="180.365" y2="303.3257">
							<stop  offset="0.0013" style="stop-color:#FFDE3E"/>
							<stop  offset="0.0047" style="stop-color:#FFDE3E"/>
							<stop  offset="0.784" style="stop-color:#ED9352"/>
						</linearGradient>
						<path style="fill:url(#SVGID_00000083052627990581773380000001532953324712507548_);" d="M128.582,303.326
							c4.315-0.17,8.63-0.249,12.946-0.315c4.315-0.068,8.63-0.061,12.946-0.096c4.315,0.032,8.631,0.029,12.946,0.094
							c4.315,0.066,8.631,0.145,12.946,0.316c-4.315,0.171-8.631,0.25-12.946,0.316c-4.315,0.065-8.63,0.062-12.946,0.094
							c-4.315-0.034-8.63-0.028-12.946-0.096C137.212,303.575,132.897,303.495,128.582,303.326z"/>
					</g>
				</g>
				<g>
					<g style="opacity:0.91;">
						
							<linearGradient id="SVGID_00000029749670929468760660000010869651263810202522_" gradientUnits="userSpaceOnUse" x1="117.9044" y1="288.1195" x2="125.2861" y2="288.1195">
							<stop  offset="0.0013" style="stop-color:#FFDE3E"/>
							<stop  offset="0.0047" style="stop-color:#FFDE3E"/>
							<stop  offset="0.784" style="stop-color:#ED9352"/>
						</linearGradient>
						<path style="fill:url(#SVGID_00000029749670929468760660000010869651263810202522_);" d="M118.307,271.68
							c0.714,2.707,1.34,5.431,1.952,8.158c0.614,2.727,1.156,5.468,1.738,8.201c0.516,2.746,1.068,5.485,1.551,8.238
							c0.483,2.753,0.953,5.508,1.334,8.282c-0.715-2.706-1.341-5.431-1.954-8.158c-0.612-2.727-1.157-5.468-1.736-8.201
							c-0.514-2.747-1.068-5.485-1.55-8.238C119.159,277.209,118.689,274.453,118.307,271.68z"/>
					</g>
					<g style="opacity:0.91;">
						
							<linearGradient id="SVGID_00000152251741345453049660000011962810477096971666_" gradientUnits="userSpaceOnUse" x1="126.5315" y1="288.1195" x2="132.2761" y2="288.1195">
							<stop  offset="0.0013" style="stop-color:#FFDE3E"/>
							<stop  offset="0.0047" style="stop-color:#FFDE3E"/>
							<stop  offset="0.784" style="stop-color:#ED9352"/>
						</linearGradient>
						<path style="fill:url(#SVGID_00000152251741345453049660000011962810477096971666_);" d="M126.938,271.68
							c0.579,2.715,1.068,5.443,1.544,8.173c0.478,2.73,0.883,5.471,1.328,8.205c0.379,2.745,0.793,5.484,1.14,8.234
							c0.346,2.75,0.678,5.501,0.92,8.266c-0.58-2.715-1.069-5.443-1.546-8.173c-0.476-2.73-0.883-5.47-1.326-8.206
							c-0.377-2.745-0.794-5.484-1.138-8.234C127.514,277.197,127.181,274.445,126.938,271.68z"/>
					</g>
					<g style="opacity:0.91;">
						
							<linearGradient id="SVGID_00000095303016387654269900000007392772941147323045_" gradientUnits="userSpaceOnUse" x1="135.1596" y1="288.1195" x2="139.2652" y2="288.1195">
							<stop  offset="0.0013" style="stop-color:#FFDE3E"/>
							<stop  offset="0.0047" style="stop-color:#FFDE3E"/>
							<stop  offset="0.784" style="stop-color:#ED9352"/>
						</linearGradient>
						<path style="fill:url(#SVGID_00000095303016387654269900000007392772941147323045_);" d="M135.568,271.68
							c0.443,2.723,0.796,5.455,1.135,8.188c0.341,2.733,0.609,5.473,0.917,8.21c0.242,2.743,0.519,5.483,0.728,8.229
							c0.208,2.746,0.403,5.494,0.507,8.251c-0.444-2.723-0.797-5.455-1.137-8.188c-0.339-2.733-0.61-5.474-0.916-8.21
							c-0.24-2.743-0.52-5.482-0.727-8.229C135.869,277.185,135.674,274.437,135.568,271.68z"/>
					</g>
					<g style="opacity:0.91;">
						
							<linearGradient id="SVGID_00000078747198733890368790000003451271867280918955_" gradientUnits="userSpaceOnUse" x1="143.7885" y1="288.1195" x2="146.2533" y2="288.1195">
							<stop  offset="0.0013" style="stop-color:#FFDE3E"/>
							<stop  offset="0.0047" style="stop-color:#FFDE3E"/>
							<stop  offset="0.784" style="stop-color:#ED9352"/>
						</linearGradient>
						<path style="fill:url(#SVGID_00000078747198733890368790000003451271867280918955_);" d="M144.199,271.68
							c0.306,2.731,0.523,5.467,0.725,8.204c0.205,2.737,0.335,5.477,0.507,8.215c0.105,2.742,0.245,5.481,0.317,8.224
							c0.071,2.743,0.129,5.487,0.095,8.235c-0.308-2.731-0.524-5.467-0.727-8.204c-0.202-2.737-0.336-5.477-0.505-8.215
							c-0.103-2.742-0.246-5.481-0.315-8.224C144.224,277.172,144.167,274.429,144.199,271.68z"/>
					</g>
					<g style="opacity:0.91;">
						
							<linearGradient id="SVGID_00000162322523688966370460000017583738199193216146_" gradientUnits="userSpaceOnUse" x1="152.419" y1="288.1195" x2="153.241" y2="288.1195">
							<stop  offset="0.0013" style="stop-color:#FFDE3E"/>
							<stop  offset="0.0047" style="stop-color:#FFDE3E"/>
							<stop  offset="0.784" style="stop-color:#ED9352"/>
						</linearGradient>
						<path style="fill:url(#SVGID_00000162322523688966370460000017583738199193216146_);" d="M152.829,271.68
							c0.169,2.74,0.249,5.48,0.315,8.22c0.068,2.74,0.061,5.48,0.096,8.22c-0.032,2.74-0.029,5.48-0.094,8.22
							c-0.066,2.74-0.145,5.48-0.316,8.219c-0.171-2.74-0.25-5.48-0.316-8.219c-0.066-2.74-0.062-5.48-0.094-8.22
							c0.034-2.74,0.028-5.48,0.096-8.22C152.581,277.16,152.66,274.42,152.829,271.68z"/>
					</g>
					<g style="opacity:0.91;">
						
							<linearGradient id="SVGID_00000118369836470752421920000013097490361797991827_" gradientUnits="userSpaceOnUse" x1="161.8705" y1="288.1195" x2="159.4056" y2="288.1195">
							<stop  offset="0.0013" style="stop-color:#FFDE3E"/>
							<stop  offset="0.0047" style="stop-color:#FFDE3E"/>
							<stop  offset="0.784" style="stop-color:#ED9352"/>
						</linearGradient>
						<path style="fill:url(#SVGID_00000118369836470752421920000013097490361797991827_);" d="M161.46,271.68
							c0.032,2.748-0.025,5.492-0.097,8.235c-0.069,2.743-0.213,5.483-0.315,8.224c-0.169,2.738-0.303,5.478-0.505,8.215
							c-0.203,2.737-0.419,5.473-0.727,8.204c-0.034-2.748,0.024-5.492,0.095-8.235c0.072-2.743,0.212-5.483,0.317-8.224
							c0.171-2.738,0.302-5.478,0.507-8.215C160.937,277.148,161.154,274.412,161.46,271.68z"/>
					</g>
					<g style="opacity:0.91;">
						
							<linearGradient id="SVGID_00000125594691789826632600000007317117743848188575_" gradientUnits="userSpaceOnUse" x1="170.4994" y1="288.1195" x2="166.3938" y2="288.1195">
							<stop  offset="0.0013" style="stop-color:#FFDE3E"/>
							<stop  offset="0.0047" style="stop-color:#FFDE3E"/>
							<stop  offset="0.784" style="stop-color:#ED9352"/>
						</linearGradient>
						<path style="fill:url(#SVGID_00000125594691789826632600000007317117743848188575_);" d="M170.09,271.68
							c-0.105,2.757-0.3,5.505-0.509,8.251c-0.207,2.747-0.487,5.486-0.727,8.229c-0.306,2.737-0.577,5.477-0.916,8.21
							c-0.34,2.733-0.693,5.465-1.137,8.188c0.104-2.757,0.299-5.505,0.507-8.251c0.209-2.746,0.486-5.486,0.728-8.229
							c0.308-2.736,0.576-5.477,0.917-8.21C169.295,277.135,169.648,274.403,170.09,271.68z"/>
					</g>
					<g style="opacity:0.91;">
						
							<linearGradient id="SVGID_00000021090768122828834370000014927363918556090779_" gradientUnits="userSpaceOnUse" x1="179.1275" y1="288.1195" x2="173.3829" y2="288.1195">
							<stop  offset="0.0013" style="stop-color:#FFDE3E"/>
							<stop  offset="0.0047" style="stop-color:#FFDE3E"/>
							<stop  offset="0.784" style="stop-color:#ED9352"/>
						</linearGradient>
						<path style="fill:url(#SVGID_00000021090768122828834370000014927363918556090779_);" d="M178.721,271.68
							c-0.243,2.765-0.576,5.517-0.922,8.266c-0.344,2.75-0.761,5.489-1.138,8.234c-0.443,2.735-0.85,5.475-1.326,8.206
							c-0.477,2.73-0.966,5.458-1.546,8.173c0.242-2.765,0.575-5.517,0.92-8.266c0.346-2.75,0.76-5.489,1.14-8.234
							c0.445-2.735,0.85-5.475,1.328-8.205C177.653,277.123,178.142,274.395,178.721,271.68z"/>
					</g>
					<g style="opacity:0.91;">
						
							<linearGradient id="SVGID_00000089558354633085216810000016144295029406902200_" gradientUnits="userSpaceOnUse" x1="187.7546" y1="288.1195" x2="180.3729" y2="288.1195">
							<stop  offset="0.0013" style="stop-color:#FFDE3E"/>
							<stop  offset="0.0047" style="stop-color:#FFDE3E"/>
							<stop  offset="0.784" style="stop-color:#ED9352"/>
						</linearGradient>
						<path style="fill:url(#SVGID_00000089558354633085216810000016144295029406902200_);" d="M187.352,271.68
							c-0.382,2.773-0.852,5.529-1.335,8.281c-0.482,2.753-1.036,5.492-1.55,8.238c-0.58,2.733-1.124,5.474-1.736,8.201
							c-0.613,2.727-1.238,5.451-1.954,8.158c0.38-2.773,0.851-5.529,1.334-8.282c0.484-2.753,1.035-5.492,1.551-8.238
							c0.582-2.733,1.124-5.474,1.738-8.201C186.011,277.111,186.637,274.387,187.352,271.68z"/>
					</g>
				</g>
			</g>
		</g>
	</g>
</g>
</svg>
